<?xml version="1.0" encoding="UTF-8"?>
<svg width="1113px" height="198px" viewBox="0 0 1113 198" version="1.1" xmlns="http://www.w3.org/2000/svg" xmlns:xlink="http://www.w3.org/1999/xlink">
    <!-- Generator: Sketch 59 (86127) - https://sketch.com -->
    <title>chfw</title>
    <desc>Created with Sketch.</desc>
    <defs>
        <filter x="-7.3%" y="-8.4%" width="114.7%" height="116.8%" filterUnits="objectBoundingBox" id="filter-1">
            <feOffset dx="0" dy="4" in="SourceAlpha" result="shadowOffsetOuter1"></feOffset>
            <feGaussianBlur stdDeviation="2" in="shadowOffsetOuter1" result="shadowBlurOuter1"></feGaussianBlur>
            <feColorMatrix values="0 0 0 0 0   0 0 0 0 0   0 0 0 0 0  0 0 0 0.5 0" type="matrix" in="shadowBlurOuter1" result="shadowMatrixOuter1"></feColorMatrix>
            <feMerge>
                <feMergeNode in="shadowMatrixOuter1"></feMergeNode>
                <feMergeNode in="SourceGraphic"></feMergeNode>
            </feMerge>
        </filter>
    </defs>
    <g id="Page-1" stroke="none" stroke-width="1" fill="none" fill-rule="evenodd">
        <g id="Artboard-Copy-13" transform="translate(-111.000000, -409.000000)">
            <g id="chfw" transform="translate(115.000000, 409.000000)">
                <g id="Group-3" transform="translate(267.000000, 7.000000)" fill="#125C91" fill-rule="nonzero">
                    <path d="M48.72,45.8 L65.4,45.8 C65.1599988,41.79998 64.2000084,38.3400146 62.52,35.42 C60.8399916,32.4999854 58.6600134,30.0600098 55.98,28.1 C53.2999866,26.1399902 50.260017,24.6800048 46.86,23.72 C43.459983,22.7599952 39.9200184,22.28 36.24,22.28 C31.1999748,22.28 26.7200196,23.1199916 22.8,24.8 C18.8799804,26.4800084 15.5600136,28.819985 12.84,31.82 C10.1199864,34.820015 8.06,38.3799794 6.66,42.5 C5.259993,46.6200206 4.56,51.079976 4.56,55.88 C4.56,60.5200232 5.3199924,64.7799806 6.84,68.66 C8.3600076,72.5400194 10.4799864,75.879986 13.2,78.68 C15.9200136,81.480014 19.2199806,83.6599922 23.1,85.22 C26.9800194,86.78 31.2399768,87.56 35.88,87.56 C44.1200412,87.56 50.8799736,85.4000216 56.16,81.08 C61.4400264,76.7599784 64.6399944,70.4800412 65.76,62.24 L49.32,62.24 C48.7599972,66.0800192 47.380011,69.1399886 45.18,71.42 C42.979989,73.7000114 39.8400204,74.84 35.76,74.84 C33.1199868,74.84 30.8800092,74.240006 29.04,73.04 C27.1999908,71.839994 25.7400054,70.3000094 24.66,68.42 C23.5799946,66.5399906 22.8000024,64.4400116 22.32,62.12 C21.8399976,59.7999884 21.6,57.5200112 21.6,55.28 C21.6,52.9599884 21.8399976,50.6200118 22.32,48.26 C22.8000024,45.8999882 23.6199942,43.7400098 24.78,41.78 C25.9400058,39.8199902 27.4399908,38.2200062 29.28,36.98 C31.1200092,35.7399938 33.3999864,35.12 36.12,35.12 C43.4000364,35.12 47.5999944,38.6799644 48.72,45.8 Z M74.3083592,43.04 C74.5483604,39.03998 75.5483504,35.7200132 77.3083592,33.08 C79.068368,30.4399868 81.3083456,28.320008 84.0283592,26.72 C86.7483728,25.119992 89.8083422,23.9800034 93.2083592,23.3 C96.6083762,22.6199966 100.028342,22.28 103.468359,22.28 C106.588375,22.28 109.748343,22.4999978 112.948359,22.94 C116.148375,23.3800022 119.068346,24.2399936 121.708359,25.52 C124.348372,26.8000064 126.508351,28.5799886 128.188359,30.86 C129.868368,33.1400114 130.708359,36.1599812 130.708359,39.92 L130.708359,72.2 C130.708359,75.000014 130.868358,77.6799872 131.188359,80.24 C131.508361,82.8000128 132.068355,84.7199936 132.868359,86 L115.588359,86 C115.268358,85.0399952 115.00836,84.060005 114.808359,83.06 C114.608358,82.059995 114.46836,81.0400052 114.388359,80 C111.668346,82.800014 108.468378,84.7599944 104.788359,85.88 C101.108341,87.0000056 97.3483784,87.56 93.5083592,87.56 C90.5483444,87.56 87.788372,87.2000036 85.2283592,86.48 C82.6683464,85.7599964 80.4283688,84.6400076 78.5083592,83.12 C76.5883496,81.5999924 75.0883646,79.6800116 74.0083592,77.36 C72.9283538,75.0399884 72.3883592,72.280016 72.3883592,69.08 C72.3883592,65.5599824 73.008353,62.6600114 74.2483592,60.38 C75.4883654,58.0999886 77.0883494,56.28 79.0483592,54.92 C81.008369,53.5599932 83.2483466,52.5400034 85.7683592,51.86 C88.2883718,51.1799966 90.8283464,50.640002 93.3883592,50.24 C95.5217032,49.906665 97.627243,49.6288892 99.7050224,49.4066669 L100.948359,49.28 C103.428372,49.0399988 105.62835,48.6800024 107.548359,48.2 C109.468369,47.7199976 110.988354,47.0200046 112.108359,46.1 C113.228365,45.1799954 113.74836,43.8400088 113.668359,42.08 C113.668359,40.2399908 113.368362,38.78 112.768359,37.7 C112.168356,36.6199946 111.368364,35.78 110.368359,35.18 C109.368354,34.579997 108.208366,34.180001 106.888359,33.98 C105.568353,33.78 104.148367,33.68 102.628359,33.68 C99.2683424,33.68 96.6283688,34.3999928 94.7083592,35.84 C92.7883496,37.28 91.6683608,39.6799832 91.3483592,43.04 L74.3083592,43.04 Z M113.668359,55.64 C112.948356,56.2800032 112.048365,56.7799982 110.968359,57.14 C109.888354,57.5000018 108.728365,57.7999988 107.488359,58.04 C106.496354,58.232001 105.465962,58.3983999 104.397161,58.5391998 L103.588359,58.64 C102.228352,58.8000008 100.868366,58.9999988 99.5083592,59.24 C98.2283528,59.4800012 96.9683654,59.799998 95.7283592,60.2 C94.488353,60.600002 93.4083638,61.14 92.4883592,61.82 C91.5683546,62.5000034 90.828362,63.3599948 90.2683592,64.4 C89.7083564,65.4400052 89.4283592,66.759992 89.4283592,68.36 C89.4283592,69.8800076 89.7083564,71.1599948 90.2683592,72.2 C90.828362,73.2400052 91.5883544,74.059997 92.5483592,74.66 C93.508364,75.260003 94.6283528,75.6799988 95.9083592,75.92 C97.1883656,76.1600012 98.5083524,76.28 99.8683592,76.28 C103.228376,76.28 105.82835,75.7200056 107.668359,74.6 C109.508368,73.4799944 110.868355,72.14 111.748359,70.58 C112.628364,69.0199922 113.168358,67.440008 113.368359,65.84 L113.460026,65.0666642 C113.598915,63.822218 113.668359,62.800004 113.668359,62 L113.668359,55.64 Z M143.576718,23.96 L143.576718,86 L160.616718,86 L160.616718,58.04 C160.616718,55.239986 160.896716,52.640012 161.456718,50.24 C162.016721,47.839988 162.956712,45.740009 164.276718,43.94 C165.596725,42.139991 167.336708,40.7200052 169.496718,39.68 C171.656729,38.6399948 174.296703,38.12 177.416718,38.12 C178.456724,38.12 179.536713,38.1799994 180.656718,38.3 C181.776724,38.4200006 182.736714,38.5599992 183.536718,38.72 L183.536718,22.88 C182.176712,22.479998 180.936724,22.28 179.816718,22.28 C177.656708,22.28 175.576728,22.5999968 173.576718,23.24 C171.576708,23.8800032 169.696727,24.78 167.936718,25.94 C166.17671,27.1000058 164.616725,28.4999918 163.256718,30.14 C161.896712,31.78 160.816722,33.5599904 160.016718,35.48 L159.776718,35.48 L159.776718,23.96 L143.576718,23.96 Z M229.525078,48.32 L201.805078,48.32 C201.885078,47.12 202.145075,45.7600076 202.585078,44.24 C203.02508,42.7199924 203.785072,41.2800068 204.865078,39.92 C205.945083,38.5599932 207.385069,37.4200046 209.185078,36.5 C210.985087,35.5799954 213.245064,35.12 215.965078,35.12 C220.125098,35.12 223.225067,36.2399888 225.265078,38.48 C227.305088,40.7200112 228.725074,43.9999784 229.525078,48.32 Z M201.805078,59.12 L246.565078,59.12 C246.885079,54.319976 246.485083,49.720022 245.365078,45.32 C244.245072,40.919978 242.42509,37.0000172 239.905078,33.56 C237.385065,30.1199828 234.165097,27.3800102 230.245078,25.34 C226.325058,23.2999898 221.725104,22.28 216.445078,22.28 C211.725054,22.28 207.425097,23.1199916 203.545078,24.8 C199.665058,26.4800084 196.325092,28.7799854 193.525078,31.7 C190.725064,34.6200146 188.565085,38.07998 187.045078,42.08 C185.52507,46.08002 184.765078,50.3999768 184.765078,55.04 C184.765078,59.840024 185.50507,64.23998 186.985078,68.24 C188.465085,72.24002 190.565064,75.6799856 193.285078,78.56 C196.005091,81.4400144 199.325058,83.6599922 203.245078,85.22 C207.165097,86.78 211.565053,87.56 216.445078,87.56 C223.485113,87.56 229.485053,85.960016 234.445078,82.76 C239.405102,79.559984 243.085066,74.2400372 245.485078,66.8 L230.485078,66.8 C229.925075,68.7200096 228.40509,70.5399914 225.925078,72.26 C223.445065,73.9800086 220.485095,74.84 217.045078,74.84 C212.245054,74.84 208.56509,73.6000124 206.005078,71.12 C203.445065,68.6399876 202.045079,64.6400276 201.805078,59.12 Z M298.073437,48.32 L270.353437,48.32 C270.433437,47.12 270.693435,45.7600076 271.133437,44.24 C271.573439,42.7199924 272.333431,41.2800068 273.413437,39.92 C274.493442,38.5599932 275.933428,37.4200046 277.733437,36.5 C279.533446,35.5799954 281.793423,35.12 284.513437,35.12 C288.673458,35.12 291.773427,36.2399888 293.813437,38.48 C295.853447,40.7200112 297.273433,43.9999784 298.073437,48.32 Z M270.353437,59.12 L315.113437,59.12 C315.433438,54.319976 315.033442,49.720022 313.913437,45.32 C312.793431,40.919978 310.973449,37.0000172 308.453437,33.56 C305.933424,30.1199828 302.713456,27.3800102 298.793437,25.34 C294.873417,23.2999898 290.273463,22.28 284.993437,22.28 C280.273413,22.28 275.973456,23.1199916 272.093437,24.8 C268.213417,26.4800084 264.873451,28.7799854 262.073437,31.7 C259.273423,34.6200146 257.113444,38.07998 255.593437,42.08 C254.073429,46.08002 253.313437,50.3999768 253.313437,55.04 C253.313437,59.840024 254.053429,64.23998 255.533437,68.24 C257.013444,72.24002 259.113423,75.6799856 261.833437,78.56 C264.55345,81.4400144 267.873417,83.6599922 271.793437,85.22 C275.713456,86.78 280.113412,87.56 284.993437,87.56 C292.033472,87.56 298.033412,85.960016 302.993437,82.76 C307.953462,79.559984 311.633425,74.2400372 314.033437,66.8 L299.033437,66.8 C298.473434,68.7200096 296.953449,70.5399914 294.473437,72.26 C291.993424,73.9800086 289.033454,74.84 285.593437,74.84 C280.793413,74.84 277.11345,73.6000124 274.553437,71.12 C271.993424,68.6399876 270.593438,64.6400276 270.353437,59.12 Z M324.861796,23.96 L324.861796,86 L341.901796,86 L341.901796,58.04 C341.901796,55.239986 342.181793,52.640012 342.741796,50.24 C343.301799,47.839988 344.241789,45.740009 345.561796,43.94 C346.881803,42.139991 348.621785,40.7200052 350.781796,39.68 C352.941807,38.6399948 355.58178,38.12 358.701796,38.12 C359.741801,38.12 360.82179,38.1799994 361.941796,38.3 C363.061802,38.4200006 364.021792,38.5599992 364.821796,38.72 L364.821796,22.88 C363.461789,22.479998 362.221802,22.28 361.101796,22.28 C358.941785,22.28 356.861796,22.5999968 354.861796,23.24 C352.861796,23.8800032 350.981805,24.78 349.221796,25.94 C347.461787,27.1000058 345.901803,28.4999918 344.541796,30.14 C343.181789,31.78 342.1018,33.5599904 341.301796,35.48 L341.061796,35.48 L341.061796,23.96 L324.861796,23.96 Z M404.238514,0.32 L404.238514,86 L421.278514,86 L421.278514,53.48 C421.278514,47.1599684 422.318504,42.6200138 424.398514,39.86 C426.478525,37.0999862 429.838491,35.72 434.478514,35.72 C438.558535,35.72 441.398506,36.9799874 442.998514,39.5 C444.598522,42.0200126 445.398514,45.8399744 445.398514,50.96 L445.398514,86 L462.438514,86 L462.438514,47.84 C462.438514,43.9999808 462.098518,40.5000158 461.418514,37.34 C460.738514,34.1799842 459.558523,31.500011 457.878514,29.3 C456.198506,27.099989 453.898529,25.3800062 450.978514,24.14 C448.0585,22.8999938 444.318537,22.28 439.758514,22.28 C436.558498,22.28 433.278531,23.0999918 429.918514,24.74 C426.558498,26.3800082 423.798525,28.999982 421.638514,32.6 L421.278514,32.6 L421.278514,0.32 L404.238514,0.32 Z M474.346874,43.04 C474.586875,39.03998 475.586865,35.7200132 477.346874,33.08 C479.106882,30.4399868 481.34686,28.320008 484.066874,26.72 C486.786887,25.119992 489.846857,23.9800034 493.246874,23.3 C496.646891,22.6199966 500.066856,22.28 503.506874,22.28 C506.626889,22.28 509.786858,22.4999978 512.986874,22.94 C516.18689,23.3800022 519.10686,24.2399936 521.746874,25.52 C524.386887,26.8000064 526.546865,28.5799886 528.226874,30.86 C529.906882,33.1400114 530.746874,36.1599812 530.746874,39.92 L530.746874,72.2 C530.746874,75.000014 530.906872,77.6799872 531.226874,80.24 C531.546875,82.8000128 532.10687,84.7199936 532.906874,86 L515.626874,86 C515.306872,85.0399952 515.046875,84.060005 514.846874,83.06 C514.646873,82.059995 514.506874,81.0400052 514.426874,80 C511.70686,82.800014 508.506892,84.7599944 504.826874,85.88 C501.146855,87.0000056 497.386893,87.56 493.546874,87.56 C490.586859,87.56 487.826886,87.2000036 485.266874,86.48 C482.706861,85.7599964 480.466883,84.6400076 478.546874,83.12 C476.626864,81.5999924 475.126879,79.6800116 474.046874,77.36 C472.966868,75.0399884 472.426874,72.280016 472.426874,69.08 C472.426874,65.5599824 473.046867,62.6600114 474.286874,60.38 C475.52688,58.0999886 477.126864,56.28 479.086874,54.92 C481.046883,53.5599932 483.286861,52.5400034 485.806874,51.86 C488.326886,51.1799966 490.866861,50.640002 493.426874,50.24 C495.560218,49.906665 497.665757,49.6288892 499.743537,49.4066669 L500.986874,49.28 C503.466886,49.0399988 505.666864,48.6800024 507.586874,48.2 C509.506883,47.7199976 511.026868,47.0200046 512.146874,46.1 C513.266879,45.1799954 513.786874,43.8400088 513.706874,42.08 C513.706874,40.2399908 513.406877,38.78 512.806874,37.7 C512.206871,36.6199946 511.406879,35.78 510.406874,35.18 C509.406869,34.579997 508.24688,34.180001 506.926874,33.98 C505.606867,33.78 504.186881,33.68 502.666874,33.68 C499.306857,33.68 496.666883,34.3999928 494.746874,35.84 C492.826864,37.28 491.706875,39.6799832 491.386874,43.04 L474.346874,43.04 Z M513.706874,55.64 C512.98687,56.2800032 512.086879,56.7799982 511.006874,57.14 C509.926868,57.5000018 508.76688,57.7999988 507.526874,58.04 C506.534869,58.232001 505.504476,58.3983999 504.435676,58.5391998 L503.626874,58.64 C502.266867,58.8000008 500.90688,58.9999988 499.546874,59.24 C498.266867,59.4800012 497.00688,59.799998 495.766874,60.2 C494.526867,60.600002 493.446878,61.14 492.526874,61.82 C491.606869,62.5000034 490.866876,63.3599948 490.306874,64.4 C489.746871,65.4400052 489.466874,66.759992 489.466874,68.36 C489.466874,69.8800076 489.746871,71.1599948 490.306874,72.2 C490.866876,73.2400052 491.626869,74.059997 492.586874,74.66 C493.546878,75.260003 494.666867,75.6799988 495.946874,75.92 C497.22688,76.1600012 498.546867,76.28 499.906874,76.28 C503.26689,76.28 505.866864,75.7200056 507.706874,74.6 C509.546883,73.4799944 510.906869,72.14 511.786874,70.58 C512.666878,69.0199922 513.206873,67.440008 513.406874,65.84 L513.498541,65.0666642 C513.63743,63.822218 513.706874,62.800004 513.706874,62 L513.706874,55.64 Z M585.855233,45.8 L602.535233,45.8 C602.295232,41.79998 601.335241,38.3400146 599.655233,35.42 C597.975224,32.4999854 595.795246,30.0600098 593.115233,28.1 C590.435219,26.1399902 587.39525,24.6800048 583.995233,23.72 C580.595216,22.7599952 577.055251,22.28 573.375233,22.28 C568.335208,22.28 563.855252,23.1199916 559.935233,24.8 C556.015213,26.4800084 552.695246,28.819985 549.975233,31.82 C547.255219,34.820015 545.195233,38.3799794 543.795233,42.5 C542.395226,46.6200206 541.695233,51.079976 541.695233,55.88 C541.695233,60.5200232 542.455225,64.7799806 543.975233,68.66 C545.49524,72.5400194 547.615219,75.879986 550.335233,78.68 C553.055246,81.480014 556.355213,83.6599922 560.235233,85.22 C564.115252,86.78 568.37521,87.56 573.015233,87.56 C581.255274,87.56 588.015206,85.4000216 593.295233,81.08 C598.575259,76.7599784 601.775227,70.4800412 602.895233,62.24 L586.455233,62.24 C585.89523,66.0800192 584.515244,69.1399886 582.315233,71.42 C580.115222,73.7000114 576.975253,74.84 572.895233,74.84 C570.25522,74.84 568.015242,74.240006 566.175233,73.04 C564.335224,71.839994 562.875238,70.3000094 561.795233,68.42 C560.715227,66.5399906 559.935235,64.4400116 559.455233,62.12 C558.97523,59.7999884 558.735233,57.5200112 558.735233,55.28 C558.735233,52.9599884 558.97523,50.6200118 559.455233,48.26 C559.935235,45.8999882 560.755227,43.7400098 561.915233,41.78 C563.075239,39.8199902 564.575224,38.2200062 566.415233,36.98 C568.255242,35.7399938 570.535219,35.12 573.255233,35.12 C580.535269,35.12 584.735227,38.6799644 585.855233,45.8 Z M613.723592,0.32 L613.723592,86 L630.763592,86 L630.763592,64.64 L637.363592,58.28 L654.403592,86 L675.043592,86 L649.003592,46.76 L672.403592,23.96 L652.243592,23.96 L630.763592,46.28 L630.763592,0.32 L613.723592,0.32 Z M698.231951,14.36 L698.231951,0.32 L681.191951,0.32 L681.191951,14.36 L698.231951,14.36 Z M681.191951,23.96 L681.191951,86 L698.231951,86 L698.231951,23.96 L681.191951,23.96 Z M711.34031,23.96 L711.34031,86 L728.38031,86 L728.38031,53.48 C728.38031,47.1599684 729.4203,42.6200138 731.50031,39.86 C733.580321,37.0999862 736.940287,35.72 741.58031,35.72 C745.660331,35.72 748.500302,36.9799874 750.10031,39.5 C751.700318,42.0200126 752.50031,45.8399744 752.50031,50.96 L752.50031,86 L769.54031,86 L769.54031,47.84 C769.54031,43.9999808 769.200314,40.5000158 768.52031,37.34 C767.84031,34.1799842 766.660319,31.500011 764.98031,29.3 C763.300302,27.099989 761.000325,25.3800062 758.08031,24.14 C755.160296,22.8999938 751.420333,22.28 746.86031,22.28 C743.260292,22.28 739.740328,23.0999918 736.30031,24.74 C732.860293,26.3800082 730.060321,28.999982 727.90031,32.6 L727.54031,32.6 L727.54031,23.96 L711.34031,23.96 Z M806.88867,22.28 C810.96869,22.28 814.548654,23.0399924 817.62867,24.56 C820.708685,26.0800076 823.288659,28.639982 825.36867,32.24 L825.60867,32.24 L825.60867,23.96 L841.80867,23.96 L841.80867,82.04 C841.80867,84.5200124 841.468673,87.359984 840.78867,90.56 C840.108666,93.760016 838.648681,96.7399862 836.40867,99.5 C834.168658,102.260014 830.928691,104.59999 826.68867,106.52 C822.448648,108.44001 816.768705,109.4 809.64867,109.4 C806.608654,109.4 803.508685,109.020004 800.34867,108.26 C797.188654,107.499996 794.308683,106.320008 791.70867,104.72 C789.108657,103.119992 786.948678,101.060013 785.22867,98.54 C783.508661,96.0199874 782.528671,93.0000176 782.28867,89.48 L799.20867,89.48 C800.008674,92.680016 801.568658,94.8999938 803.88867,96.14 C806.208681,97.3800062 808.888654,98 811.92867,98 C816.728694,98 820.228659,96.5600144 822.42867,93.68 C824.628681,90.7999856 825.68867,87.160022 825.60867,82.76 L825.60867,74.6 L825.36867,74.6 C823.52866,77.8800164 820.908687,80.2999922 817.50867,81.86 C814.108653,83.4200078 810.528688,84.2 806.76867,84.2 C802.128646,84.2 798.128686,83.3800082 794.76867,81.74 C791.408653,80.0999918 788.64868,77.8600142 786.48867,75.02 C784.328659,72.1799858 782.74867,68.860019 781.74867,65.06 C780.74867,61.259981 780.24867,57.2400212 780.24867,53 C780.24867,48.99998 780.828664,45.1400186 781.98867,41.42 C783.148675,37.6999814 784.848658,34.4200142 787.08867,31.58 C789.328681,28.7399858 792.108653,26.4800084 795.42867,24.8 C798.748686,23.1199916 802.568648,22.28 806.88867,22.28 Z M811.08867,35.12 C808.688658,35.12 806.628678,35.5999952 804.90867,36.56 C803.188661,37.5200048 801.748675,38.8199918 800.58867,40.46 C799.428664,42.1000082 798.588672,43.9799894 798.06867,46.1 C797.548667,48.2200106 797.28867,50.4399884 797.28867,52.76 C797.28867,55.0000112 797.508667,57.219989 797.94867,59.42 C798.388672,61.620011 799.148664,63.5999912 800.22867,65.36 C801.308675,67.12 802.728661,68.5599944 804.48867,69.68 C806.248678,70.8000056 808.448656,71.36 811.08867,71.36 C813.488682,71.36 815.60866,70.8800048 817.44867,69.92 C819.28867,68.9599952 820.808664,67.680008 822.00867,66.08 C823.208676,64.479992 824.108667,62.6600102 824.70867,60.62 C825.308673,58.5799898 825.60867,56.4400112 825.60867,54.2 C825.60867,51.6399872 825.368672,49.2200114 824.88867,46.94 C824.408667,44.6599886 823.608675,42.6400088 822.48867,40.88 C821.368664,39.12 819.888679,37.7200052 818.04867,36.68 C816.20866,35.6399948 813.888684,35.12 811.08867,35.12 Z" id="careerhacking"></path>
                    <path d="M4.76,143.368 L4.76,167 L12.712,167 L12.712,143.368 L18.2,143.368 L18.2,138.048 L12.712,138.048 L12.712,136.312 C12.712,135.117327 12.945331,134.268003 13.412,133.764 C13.878669,133.259997 14.6533279,133.008 15.736,133.008 C16.744005,133.008 17.714662,133.063999 18.648,133.176 L18.648,127.24 C17.9759966,127.202666 17.2853369,127.156 16.576,127.1 C15.8666631,127.044 15.1573369,127.016 14.448,127.016 C11.1999838,127.016 8.77334136,127.837325 7.168,129.48 C5.56265864,131.122675 4.76,133.231987 4.76,135.808 L4.76,138.048 L0,138.048 L0,143.368 L4.76,143.368 Z M28.5732343,152.552 C28.5732343,151.394661 28.6852332,150.256 28.9092343,149.136 C29.1332354,148.015994 29.5158983,147.026671 30.0572343,146.168 C30.5985703,145.309329 31.3172298,144.609336 32.2132343,144.068 C33.1092388,143.526664 34.2292276,143.256 35.5732343,143.256 C36.917241,143.256 38.0465631,143.526664 38.9612343,144.068 C39.8759055,144.609336 40.6038983,145.309329 41.1452343,146.168 C41.6865703,147.026671 42.0692332,148.015994 42.2932343,149.136 C42.5172354,150.256 42.6292343,151.394661 42.6292343,152.552 C42.6292343,153.709339 42.5172354,154.838661 42.2932343,155.94 C42.0692332,157.041339 41.6865703,158.030662 41.1452343,158.908 C40.6038983,159.785338 39.8759055,160.485331 38.9612343,161.008 C38.0465631,161.530669 36.917241,161.792 35.5732343,161.792 C34.2292276,161.792 33.1092388,161.530669 32.2132343,161.008 C31.3172298,160.485331 30.5985703,159.785338 30.0572343,158.908 C29.5158983,158.030662 29.1332354,157.041339 28.9092343,155.94 C28.6852332,154.838661 28.5732343,153.709339 28.5732343,152.552 Z M20.6212343,152.552 C20.6212343,154.866678 20.9758974,156.957324 21.6852343,158.824 C22.3945712,160.690676 23.4025611,162.28666 24.7092343,163.612 C26.0159075,164.93734 27.5838918,165.954663 29.4132343,166.664 C31.2425768,167.373337 33.2958896,167.728 35.5732343,167.728 C37.850579,167.728 39.9132251,167.373337 41.7612343,166.664 C43.6092435,165.954663 45.1865611,164.93734 46.4932343,163.612 C47.7999075,162.28666 48.8078974,160.690676 49.5172343,158.824 C50.2265712,156.957324 50.5812343,154.866678 50.5812343,152.552 C50.5812343,150.237322 50.2265712,148.137343 49.5172343,146.252 C48.8078974,144.366657 47.7999075,142.76134 46.4932343,141.436 C45.1865611,140.11066 43.6092435,139.084004 41.7612343,138.356 C39.9132251,137.627996 37.850579,137.264 35.5732343,137.264 C33.2958896,137.264 31.2425768,137.627996 29.4132343,138.356 C27.5838918,139.084004 26.0159075,140.11066 24.7092343,141.436 C23.4025611,142.76134 22.3945712,144.366657 21.6852343,146.252 C20.9758974,148.137343 20.6212343,150.237322 20.6212343,152.552 Z M55.5784686,138.048 L55.5784686,167 L63.5304686,167 L63.5304686,153.952 C63.5304686,152.645327 63.661134,151.432006 63.9224686,150.312 C64.1838032,149.191994 64.6224655,148.212004 65.2384686,147.372 C65.8544717,146.531996 66.6664636,145.869336 67.6744686,145.384 C68.6824736,144.898664 69.9144613,144.656 71.3704686,144.656 C71.8558044,144.656 72.3597993,144.684 72.8824686,144.74 C73.4051379,144.796 73.8531334,144.861333 74.2264686,144.936 L74.2264686,137.544 C73.5917988,137.357332 73.0131379,137.264 72.4904686,137.264 C71.4824636,137.264 70.5118066,137.413332 69.5784686,137.712 C68.6451306,138.010668 67.767806,138.430664 66.9464686,138.972 C66.1251312,139.513336 65.3971384,140.166663 64.7624686,140.932 C64.1277988,141.697337 63.6238038,142.527996 63.2504686,143.424 L63.1384686,143.424 L63.1384686,138.048 L55.5784686,138.048 Z M125.716937,167 L134.844937,138.048 L126.668937,138.048 L121.348937,157.648 L121.236937,157.648 L116.308937,138.048 L108.580937,138.048 L103.764937,157.704 L103.652937,157.704 L98.3329372,138.048 L89.9329372,138.048 L99.1169372,167 L107.348937,167 L112.276937,147.568 L112.388937,147.568 L117.540937,167 L125.716937,167 Z M145.106172,152.552 C145.106172,151.394661 145.21817,150.256 145.442172,149.136 C145.666173,148.015994 146.048835,147.026671 146.590172,146.168 C147.131508,145.309329 147.850167,144.609336 148.746172,144.068 C149.642176,143.526664 150.762165,143.256 152.106172,143.256 C153.450178,143.256 154.5795,143.526664 155.494172,144.068 C156.408843,144.609336 157.136835,145.309329 157.678172,146.168 C158.219508,147.026671 158.60217,148.015994 158.826172,149.136 C159.050173,150.256 159.162172,151.394661 159.162172,152.552 C159.162172,153.709339 159.050173,154.838661 158.826172,155.94 C158.60217,157.041339 158.219508,158.030662 157.678172,158.908 C157.136835,159.785338 156.408843,160.485331 155.494172,161.008 C154.5795,161.530669 153.450178,161.792 152.106172,161.792 C150.762165,161.792 149.642176,161.530669 148.746172,161.008 C147.850167,160.485331 147.131508,159.785338 146.590172,158.908 C146.048835,158.030662 145.666173,157.041339 145.442172,155.94 C145.21817,154.838661 145.106172,153.709339 145.106172,152.552 Z M137.154172,152.552 C137.154172,154.866678 137.508835,156.957324 138.218172,158.824 C138.927508,160.690676 139.935498,162.28666 141.242172,163.612 C142.548845,164.93734 144.116829,165.954663 145.946172,166.664 C147.775514,167.373337 149.828827,167.728 152.106172,167.728 C154.383516,167.728 156.446162,167.373337 158.294172,166.664 C160.142181,165.954663 161.719498,164.93734 163.026172,163.612 C164.332845,162.28666 165.340835,160.690676 166.050172,158.824 C166.759508,156.957324 167.114172,154.866678 167.114172,152.552 C167.114172,150.237322 166.759508,148.137343 166.050172,146.252 C165.340835,144.366657 164.332845,142.76134 163.026172,141.436 C161.719498,140.11066 160.142181,139.084004 158.294172,138.356 C156.446162,137.627996 154.383516,137.264 152.106172,137.264 C149.828827,137.264 147.775514,137.627996 145.946172,138.356 C144.116829,139.084004 142.548845,140.11066 141.242172,141.436 C139.935498,142.76134 138.927508,144.366657 138.218172,146.252 C137.508835,148.137343 137.154172,150.237322 137.154172,152.552 Z M172.335406,138.048 L172.335406,167 L180.287406,167 L180.287406,150.2 C180.287406,148.781326 180.492737,147.633338 180.903406,146.756 C181.314075,145.878662 181.808736,145.206669 182.387406,144.74 C182.966075,144.273331 183.563403,143.956001 184.179406,143.788 C184.795409,143.619999 185.290071,143.536 185.663406,143.536 C186.932745,143.536 187.894069,143.750665 188.547406,144.18 C189.200742,144.609335 189.667404,145.178663 189.947406,145.888 C190.227407,146.597337 190.386072,147.371996 190.423406,148.212 C190.460739,149.052004 190.479406,149.901329 190.479406,150.76 L190.479406,167 L198.431406,167 L198.431406,150.872 C198.431406,149.975996 198.496738,149.089338 198.627406,148.212 C198.758073,147.334662 199.019404,146.55067 199.411406,145.86 C199.803408,145.16933 200.344736,144.609335 201.035406,144.18 C201.726076,143.750665 202.6314,143.536 203.751406,143.536 C204.871411,143.536 205.758069,143.722665 206.411406,144.096 C207.064742,144.469335 207.559404,144.97333 207.895406,145.608 C208.231407,146.24267 208.436739,146.989329 208.511406,147.848 C208.586073,148.706671 208.623406,149.621328 208.623406,150.592 L208.623406,167 L216.575406,167 L216.575406,147.624 C216.575406,145.757324 216.314075,144.16134 215.791406,142.836 C215.268737,141.51066 214.540744,140.437337 213.607406,139.616 C212.674068,138.794663 211.554079,138.197335 210.247406,137.824 C208.940733,137.450665 207.52208,137.264 205.991406,137.264 C203.975396,137.264 202.23008,137.749328 200.755406,138.72 C199.280732,139.690672 198.114077,140.81066 197.255406,142.08 C196.471402,140.287991 195.323413,139.037337 193.811406,138.328 C192.299398,137.618663 190.628748,137.264 188.799406,137.264 C186.895396,137.264 185.20608,137.674663 183.731406,138.496 C182.256732,139.317337 180.996744,140.474659 179.951406,141.968 L179.839406,141.968 L179.839406,138.048 L172.335406,138.048 Z M242.18064,149.416 L229.24464,149.416 C229.281974,148.855997 229.403306,148.221337 229.60864,147.512 C229.813974,146.802663 230.168638,146.13067 230.67264,145.496 C231.176643,144.86133 231.848636,144.329335 232.68864,143.9 C233.528644,143.470665 234.5833,143.256 235.85264,143.256 C237.793983,143.256 239.240635,143.778661 240.19264,144.824 C241.144645,145.869339 241.807305,147.39999 242.18064,149.416 Z M229.24464,154.456 L250.13264,154.456 C250.281974,152.215989 250.095309,150.069344 249.57264,148.016 C249.049971,145.962656 248.200646,144.133341 247.02464,142.528 C245.848634,140.922659 244.345983,139.644005 242.51664,138.692 C240.687298,137.739995 238.540652,137.264 236.07664,137.264 C233.873962,137.264 231.867316,137.655996 230.05664,138.44 C228.245964,139.224004 226.687313,140.297327 225.38064,141.66 C224.073967,143.022673 223.065977,144.637324 222.35664,146.504 C221.647303,148.370676 221.29264,150.386656 221.29264,152.552 C221.29264,154.792011 221.63797,156.845324 222.32864,158.712 C223.01931,160.578676 223.9993,162.183993 225.26864,163.528 C226.53798,164.872007 228.087298,165.907996 229.91664,166.636 C231.745983,167.364004 233.799295,167.728 236.07664,167.728 C239.36199,167.728 242.161962,166.981341 244.47664,165.488 C246.791318,163.994659 248.508635,161.512017 249.62864,158.04 L242.62864,158.04 C242.367305,158.936004 241.657979,159.785329 240.50064,160.588 C239.343301,161.390671 237.961981,161.792 236.35664,161.792 C234.116629,161.792 232.399313,161.213339 231.20464,160.056 C230.009967,158.898661 229.356641,157.032013 229.24464,154.456 Z M254.681874,138.048 L262.241874,138.048 L262.241874,142.08 L262.409874,142.08 C263.417879,140.399992 264.724533,139.177337 266.329874,138.412 C267.935216,137.646663 269.577866,137.264 271.257874,137.264 C273.385885,137.264 275.131201,137.55333 276.493874,138.132 C277.856548,138.71067 278.92987,139.513328 279.713874,140.54 C280.497878,141.566672 281.048539,142.817326 281.365874,144.292 C281.683209,145.766674 281.841874,147.399991 281.841874,149.192 L281.841874,167 L273.889874,167 L273.889874,150.648 C273.889874,148.258655 273.516545,146.476006 272.769874,145.3 C272.023204,144.123994 270.697884,143.536 268.793874,143.536 C266.62853,143.536 265.060546,144.179994 264.089874,145.468 C263.119203,146.756006 262.633874,148.874652 262.633874,151.824 L262.633874,167 L254.681874,167 L254.681874,138.048 Z" id="forwomen"></path>
                </g>
                <g id="Group" filter="url(#filter-1)">
                    <rect id="Rectangle" fill="#0870A7" x="27" y="0" width="66" height="39"></rect>
                    <rect id="Rectangle-Copy-3" fill="#0990D7" x="0" y="34" width="28" height="61"></rect>
                    <rect id="Rectangle-Copy-4" fill="#033651" x="190" y="39" width="28" height="57"></rect>
                    <rect id="Rectangle-Copy" fill="#033651" x="124" y="0" width="66" height="39"></rect>
                    <rect id="Rectangle-Copy-2" fill="#075A86" x="93" y="39" width="31" height="33"></rect>
                    <rect id="Rectangle-Copy-5" fill="#0990D7" x="28" y="95" width="33" height="33"></rect>
                    <rect id="Rectangle-Copy-6" fill="#075A86" x="61" y="128" width="33" height="33"></rect>
                    <rect id="Rectangle-Copy-7" fill="#033651" x="93" y="157" width="33" height="33"></rect>
                    <rect id="Rectangle-Copy-8" fill="#033651" x="124" y="128" width="33" height="33"></rect>
                    <rect id="Rectangle-Copy-9" fill="#033651" x="157" y="96" width="33" height="33"></rect>
                    <rect id="Rectangle-Copy-10" fill="#05486C" x="124" y="96" width="33" height="33"></rect>
                    <rect id="Rectangle-Copy-11" fill="#075A86" x="93" y="96" width="33" height="33"></rect>
                    <rect id="Rectangle-Copy-12" fill="#075A86" x="60" y="95" width="33" height="33"></rect>
                    <rect id="Rectangle-Copy-13" fill="#05486C" x="93" y="128" width="33" height="33"></rect>
                    <rect id="Rectangle-Copy-14" fill="#05486C" x="157" y="63" width="33" height="33"></rect>
                    <rect id="Rectangle-Copy-15" fill="#05486C" x="157" y="39" width="33" height="33"></rect>
                    <rect id="Rectangle-Copy-16" fill="#075A86" x="124" y="39" width="33" height="33"></rect>
                    <rect id="Rectangle-Copy-17" fill="#075A86" x="124" y="64" width="33" height="33"></rect>
                    <rect id="Rectangle-Copy-18" fill="#075A86" x="93" y="65" width="33" height="33"></rect>
                    <rect id="Rectangle-Copy-19" fill="#0870A7" x="60" y="64" width="33" height="33"></rect>
                    <rect id="Rectangle-Copy-20" fill="#0990D7" x="28" y="63" width="32" height="33"></rect>
                    <rect id="Rectangle-Copy-22" fill="#0870A7" x="57" y="34" width="36" height="33"></rect>
                    <rect id="Rectangle-Copy-21" fill="#0990D7" x="27" y="34" width="33" height="33"></rect>
                </g>
            </g>
        </g>
    </g>
</svg>