<?xml version="1.0" encoding="UTF-8"?>
<svg width="226px" height="198px" viewBox="0 0 226 198" version="1.1" xmlns="http://www.w3.org/2000/svg" xmlns:xlink="http://www.w3.org/1999/xlink">
    <!-- Generator: Sketch 59 (86127) - https://sketch.com -->
    <title>chfw</title>
    <desc>Created with Sketch.</desc>
    <defs>
        <filter x="-7.3%" y="-8.4%" width="114.7%" height="116.8%" filterUnits="objectBoundingBox" id="filter-1">
            <feOffset dx="0" dy="4" in="SourceAlpha" result="shadowOffsetOuter1"></feOffset>
            <feGaussianBlur stdDeviation="2" in="shadowOffsetOuter1" result="shadowBlurOuter1"></feGaussianBlur>
            <feColorMatrix values="0 0 0 0 0   0 0 0 0 0   0 0 0 0 0  0 0 0 0.5 0" type="matrix" in="shadowBlurOuter1" result="shadowMatrixOuter1"></feColorMatrix>
            <feMerge>
                <feMergeNode in="shadowMatrixOuter1"></feMergeNode>
                <feMergeNode in="SourceGraphic"></feMergeNode>
            </feMerge>
        </filter>
    </defs>
    <g id="Page-1" stroke="none" stroke-width="1" fill="none" fill-rule="evenodd">
        <g id="Artboard-Copy-13" transform="translate(-111.000000, -409.000000)">
            <g id="chfw" transform="translate(115.000000, 406.000000)">
                <g filter="url(#filter-1)" transform="translate(0.000000, 3.000000)">
                    <rect id="Rectangle" fill="#0870A7" x="27" y="0" width="66" height="39"></rect>
                    <rect id="Rectangle-Copy-3" fill="#0990D7" x="0" y="34" width="28" height="61"></rect>
                    <rect id="Rectangle-Copy-4" fill="#033651" x="190" y="39" width="28" height="57"></rect>
                    <rect id="Rectangle-Copy" fill="#033651" x="124" y="0" width="66" height="39"></rect>
                    <rect id="Rectangle-Copy-2" fill="#075A86" x="93" y="39" width="31" height="33"></rect>
                    <rect id="Rectangle-Copy-5" fill="#0990D7" x="28" y="95" width="33" height="33"></rect>
                    <rect id="Rectangle-Copy-6" fill="#075A86" x="61" y="128" width="33" height="33"></rect>
                    <rect id="Rectangle-Copy-7" fill="#033651" x="93" y="157" width="33" height="33"></rect>
                    <rect id="Rectangle-Copy-8" fill="#033651" x="124" y="128" width="33" height="33"></rect>
                    <rect id="Rectangle-Copy-9" fill="#033651" x="157" y="96" width="33" height="33"></rect>
                    <rect id="Rectangle-Copy-10" fill="#05486C" x="124" y="96" width="33" height="33"></rect>
                    <rect id="Rectangle-Copy-11" fill="#075A86" x="93" y="96" width="33" height="33"></rect>
                    <rect id="Rectangle-Copy-12" fill="#075A86" x="60" y="95" width="33" height="33"></rect>
                    <rect id="Rectangle-Copy-13" fill="#05486C" x="93" y="128" width="33" height="33"></rect>
                    <rect id="Rectangle-Copy-14" fill="#05486C" x="157" y="63" width="33" height="33"></rect>
                    <rect id="Rectangle-Copy-15" fill="#05486C" x="157" y="39" width="33" height="33"></rect>
                    <rect id="Rectangle-Copy-16" fill="#075A86" x="124" y="39" width="33" height="33"></rect>
                    <rect id="Rectangle-Copy-17" fill="#075A86" x="124" y="64" width="33" height="33"></rect>
                    <rect id="Rectangle-Copy-18" fill="#075A86" x="93" y="65" width="33" height="33"></rect>
                    <rect id="Rectangle-Copy-19" fill="#0870A7" x="60" y="64" width="33" height="33"></rect>
                    <rect id="Rectangle-Copy-20" fill="#0990D7" x="28" y="63" width="32" height="33"></rect>
                    <rect id="Rectangle-Copy-22" fill="#0870A7" x="57" y="34" width="36" height="33"></rect>
                    <rect id="Rectangle-Copy-21" fill="#0990D7" x="27" y="34" width="33" height="33"></rect>
                </g>
            </g>
        </g>
    </g>
</svg>