<?xml version="1.0" encoding="UTF-8"?>
<svg width="1079px" height="201px" viewBox="0 0 1079 201" version="1.1" xmlns="http://www.w3.org/2000/svg" xmlns:xlink="http://www.w3.org/1999/xlink">
    <!-- Generator: Sketch 59 (86127) - https://sketch.com -->
    <title>chfw</title>
    <desc>Created with Sketch.</desc>
    <defs>
        <filter x="-7.3%" y="-8.4%" width="114.7%" height="116.8%" filterUnits="objectBoundingBox" id="filter-1">
            <feOffset dx="0" dy="4" in="SourceAlpha" result="shadowOffsetOuter1"></feOffset>
            <feGaussianBlur stdDeviation="2" in="shadowOffsetOuter1" result="shadowBlurOuter1"></feGaussianBlur>
            <feColorMatrix values="0 0 0 0 0   0 0 0 0 0   0 0 0 0 0  0 0 0 0.5 0" type="matrix" in="shadowBlurOuter1" result="shadowMatrixOuter1"></feColorMatrix>
            <feMerge>
                <feMergeNode in="shadowMatrixOuter1"></feMergeNode>
                <feMergeNode in="SourceGraphic"></feMergeNode>
            </feMerge>
        </filter>
    </defs>
    <g id="Page-1" stroke="none" stroke-width="1" fill="none" fill-rule="evenodd">
        <g id="Artboard-Copy-13" transform="translate(-111.000000, -406.000000)">
            <g id="chfw" transform="translate(115.000000, 406.000000)">
                <g id="Group" filter="url(#filter-1)" transform="translate(0.000000, 3.000000)">
                    <rect id="Rectangle" fill="#0870A7" x="27" y="0" width="66" height="39"></rect>
                    <rect id="Rectangle-Copy-3" fill="#0990D7" x="0" y="34" width="28" height="61"></rect>
                    <rect id="Rectangle-Copy-4" fill="#033651" x="190" y="39" width="28" height="57"></rect>
                    <rect id="Rectangle-Copy" fill="#033651" x="124" y="0" width="66" height="39"></rect>
                    <rect id="Rectangle-Copy-2" fill="#075A86" x="93" y="39" width="31" height="33"></rect>
                    <rect id="Rectangle-Copy-5" fill="#0990D7" x="28" y="95" width="33" height="33"></rect>
                    <rect id="Rectangle-Copy-6" fill="#075A86" x="61" y="128" width="33" height="33"></rect>
                    <rect id="Rectangle-Copy-7" fill="#033651" x="93" y="157" width="33" height="33"></rect>
                    <rect id="Rectangle-Copy-8" fill="#033651" x="124" y="128" width="33" height="33"></rect>
                    <rect id="Rectangle-Copy-9" fill="#033651" x="157" y="96" width="33" height="33"></rect>
                    <rect id="Rectangle-Copy-10" fill="#05486C" x="124" y="96" width="33" height="33"></rect>
                    <rect id="Rectangle-Copy-11" fill="#075A86" x="93" y="96" width="33" height="33"></rect>
                    <rect id="Rectangle-Copy-12" fill="#075A86" x="60" y="95" width="33" height="33"></rect>
                    <rect id="Rectangle-Copy-13" fill="#05486C" x="93" y="128" width="33" height="33"></rect>
                    <rect id="Rectangle-Copy-14" fill="#05486C" x="157" y="63" width="33" height="33"></rect>
                    <rect id="Rectangle-Copy-15" fill="#05486C" x="157" y="39" width="33" height="33"></rect>
                    <rect id="Rectangle-Copy-16" fill="#075A86" x="124" y="39" width="33" height="33"></rect>
                    <rect id="Rectangle-Copy-17" fill="#075A86" x="124" y="64" width="33" height="33"></rect>
                    <rect id="Rectangle-Copy-18" fill="#075A86" x="93" y="65" width="33" height="33"></rect>
                    <rect id="Rectangle-Copy-19" fill="#0870A7" x="60" y="64" width="33" height="33"></rect>
                    <rect id="Rectangle-Copy-20" fill="#0990D7" x="28" y="63" width="32" height="33"></rect>
                    <rect id="Rectangle-Copy-22" fill="#0870A7" x="57" y="34" width="36" height="33"></rect>
                    <rect id="Rectangle-Copy-21" fill="#0990D7" x="27" y="34" width="33" height="33"></rect>
                </g>
                <g id="Group-3" transform="translate(269.000000, 0.000000)" fill="#125C91" fill-rule="nonzero">
                    <path d="M52.800293,80.3984375 L52.7941132,81.220354 C52.7817537,82.0072497 52.7508547,82.689084 52.701416,83.2658691 C52.6354977,84.034916 52.547608,84.6831028 52.4377441,85.2104492 C52.3278803,85.7377956 52.1960457,86.1662581 52.0422363,86.4958496 C51.888427,86.8254411 51.5478542,87.2429174 51.0205078,87.748291 C50.4931614,88.2536646 49.5922915,88.8688929 48.3178711,89.5939941 C47.0434507,90.3190954 45.5932698,90.9672823 43.9672852,91.5385742 C42.3413005,92.1098661 40.5725193,92.5712873 38.6608887,92.9228516 C36.749258,93.2744158 34.782725,93.4501953 32.7612305,93.4501953 C28.2348406,93.4501953 24.224871,92.7470773 20.7312012,91.3408203 C17.2375314,89.9345633 14.3042111,87.858168 11.9311523,85.1115723 C9.5580936,82.3649765 7.76734003,79.0141799 6.55883789,75.059082 C5.35033575,71.1039841 4.74609375,66.5776622 4.74609375,61.4799805 C4.74609375,55.5912792 5.48217037,50.5046601 6.9543457,46.2199707 C8.42652103,41.9352813 10.4809438,38.3867328 13.1176758,35.5742188 C15.7544077,32.7617047 18.8744937,30.6743232 22.4780273,29.3120117 C26.081561,27.9497002 30.0365996,27.2685547 34.3432617,27.2685547 C36.101083,27.2685547 37.8259193,27.4223617 39.5178223,27.7299805 C41.2097253,28.0375992 42.7917407,28.4550755 44.263916,28.9824219 C45.7360913,29.5097683 47.0544375,30.103024 48.2189941,30.762207 C49.3835507,31.42139 50.2075171,31.9926734 50.690918,32.4760742 C51.1743188,32.9594751 51.5148916,33.3659651 51.7126465,33.6955566 C51.9104014,34.0251481 52.0642084,34.4536106 52.1740723,34.980957 C52.2839361,35.5083034 52.3718258,36.1564903 52.4377441,36.9255371 C52.5036624,37.6945839 52.5366211,38.6284125 52.5366211,39.7270508 C52.5366211,42.2758917 52.3168967,44.0666452 51.8774414,45.0993652 C51.4379861,46.1320852 50.8667027,46.6484375 50.1635742,46.6484375 C49.4165002,46.6484375 48.6254925,46.3408234 47.7905273,45.7255859 C46.9555622,45.1103485 45.9668026,44.429203 44.8242188,43.6821289 C43.6816349,42.9350549 42.3193438,42.2539093 40.7373047,41.6386719 C39.1552655,41.0234344 37.265636,40.7158203 35.0683594,40.7158203 C30.7616972,40.7158203 27.4658317,42.3747393 25.1806641,45.692627 C22.8954964,49.0105146 21.7529297,53.8774093 21.7529297,60.293457 C21.7529297,63.4575354 22.0385714,66.2480348 22.6098633,68.6650391 C23.1811552,71.0820433 24.027094,73.1035075 25.1477051,74.7294922 C26.2683161,76.3554769 27.6745521,77.5749471 29.3664551,78.3879395 C31.0583581,79.2009318 33.0248911,79.6074219 35.2661133,79.6074219 C37.551281,79.6074219 39.517814,79.2668491 41.1657715,78.5856934 C42.8137289,77.9045376 44.2529235,77.1464885 45.4833984,76.3115234 C46.5771539,75.5693322 47.5146464,74.8879142 48.2958975,74.2672534 L48.581543,74.0373535 C49.4165081,73.3561978 50.119626,73.015625 50.690918,73.015625 C51.0864278,73.015625 51.4160143,73.1254872 51.6796875,73.3452148 C51.9433607,73.5649425 52.1520988,73.9714326 52.3059082,74.5646973 C52.4597176,75.157962 52.580566,75.916011 52.668457,76.8388672 C52.7563481,77.7617234 52.800293,78.9482349 52.800293,80.3984375 Z M113.730908,89.956543 C113.730908,90.5717804 113.511184,91.055174 113.071728,91.4067383 C112.632273,91.7583025 111.940141,92.0109856 110.995312,92.1647949 C110.117971,92.3076179 108.852257,92.3841292 107.198136,92.3943307 L106.809521,92.3955078 C104.831972,92.3955078 103.392778,92.3186043 102.491894,92.1647949 C101.591011,92.0109856 100.95381,91.7583025 100.580273,91.4067383 C100.206736,91.055174 100.019971,90.5717804 100.019971,89.956543 L100.019971,85.2763672 C97.6029662,87.8691536 94.8454255,89.8906177 91.7472654,91.3408203 C88.6491054,92.7910229 85.2104191,93.5161133 81.4311033,93.5161133 C78.3109705,93.5161133 75.4435676,93.1096232 72.8288084,92.2966309 C70.2140492,91.4836385 67.9508883,90.2751545 66.0392576,88.6711426 C64.127627,87.0671307 62.6444875,85.0786251 61.5897947,82.7055664 C60.535102,80.3325077 60.0077635,77.5639807 60.0077635,74.3999023 C60.0077635,70.9721508 60.6779228,67.9948857 62.0182615,65.4680176 C63.3586003,62.9411495 65.358092,60.853768 68.0167967,59.2058105 C70.6755014,57.5578531 73.9823531,56.3383829 77.937451,55.5473633 C81.8925489,54.7563437 86.4847881,54.3608398 91.7143064,54.3608398 L97.4491697,54.3608398 L97.4491697,50.8012695 C97.4491697,48.9555572 97.262404,47.3405831 96.888867,45.9562988 C96.51533,44.5720146 95.9001017,43.4184616 95.0431639,42.4956055 C94.186226,41.5727493 93.0436593,40.8916038 91.6154295,40.4521484 C90.1871997,40.0126931 88.4184186,39.7929688 86.309033,39.7929688 C83.5404645,39.7929688 81.0685654,40.1005829 78.8932615,40.7158203 C76.7179577,41.3310578 74.7953695,42.0122033 73.1254393,42.7592773 C71.7894951,43.3569366 70.6293464,43.9124016 69.6449719,44.4256828 L68.9396482,44.8027344 C67.8190372,45.4179718 66.9071811,45.7255859 66.2040525,45.7255859 C65.7206517,45.7255859 65.2921892,45.5717789 64.9186521,45.2641602 C64.5451151,44.9565414 64.237501,44.5170927 63.9958006,43.9458008 C63.7541002,43.3745089 63.5673344,42.6713909 63.4354978,41.8364258 C63.3036613,41.0014607 63.2377439,40.0786183 63.2377439,39.0678711 C63.2377439,37.7055596 63.3476061,36.6289102 63.5673338,35.8378906 C63.7870614,35.046871 64.2045377,34.3327669 64.8197752,33.6955566 C65.4350126,33.0583464 66.511662,32.3552285 68.0497557,31.5861816 C69.5878493,30.8171348 71.3895891,30.1030306 73.4550291,29.4438477 C75.5204691,28.7846647 77.7726439,28.24634 80.2116209,27.8288574 C82.6505979,27.4113749 85.1664419,27.2026367 87.7592283,27.2026367 C92.3735092,27.2026367 96.3175616,27.6530717 99.5915037,28.5539551 C102.865446,29.4548385 105.557069,30.839102 107.666455,32.7067871 C109.77584,34.5744722 111.313911,36.980454 112.280713,39.9248047 C113.247514,42.8691553 113.730908,46.3627728 113.730908,50.4057617 L113.730908,89.956543 Z M97.4491697,64.7758789 L91.1210447,64.7758789 C88.4403673,64.7758789 86.1552339,64.9736308 84.265576,65.3691406 C82.3759181,65.7646504 80.8378475,66.3579062 79.6513182,67.1489258 C78.4647888,67.9399454 77.5968775,68.8957464 77.0475584,70.0163574 C76.4982392,71.1369685 76.2235838,72.422356 76.2235838,73.8725586 C76.2235838,76.3335084 77.0036053,78.2670828 78.5636717,79.6733398 C80.1237381,81.0795969 82.2880231,81.7827148 85.0565916,81.7827148 C87.3857048,81.7827148 89.5280174,81.1894591 91.4835936,80.0029297 C93.4391697,78.8164003 95.4276752,77.0805778 97.4491697,74.7954102 L97.4491697,64.7758789 Z M167.674218,36.4311523 L167.668945,37.3460963 C167.654883,38.5203159 167.612695,39.5117147 167.542382,40.3203125 C167.454491,41.3310597 167.322657,42.1220675 167.146875,42.6933594 C166.971092,43.2646513 166.740382,43.6601552 166.454736,43.8798828 C166.16909,44.0996105 165.806545,44.2094727 165.367089,44.2094727 C165.015525,44.2094727 164.620021,44.1325691 164.180566,43.9787598 L163.626855,43.7889159 C163.336817,43.6913576 163.027003,43.5898443 162.697412,43.484375 C162.148093,43.3085929 161.543851,43.1437996 160.884668,42.9899902 C160.225485,42.8361809 159.500394,42.7592773 158.709375,42.7592773 C157.786518,42.7592773 156.863676,42.9460431 155.94082,43.3195801 C155.017964,43.6931171 154.062163,44.2753867 153.073388,45.0664062 C152.084614,45.8574258 151.051909,46.9121028 149.975244,48.2304688 C148.898578,49.5488347 147.745025,51.174795 146.51455,53.1083984 L146.51455,89.7587891 C146.51455,90.1982444 146.382716,90.582762 146.119043,90.9123535 C145.855369,91.241945 145.404934,91.5166005 144.767724,91.7363281 C144.130514,91.9560558 143.284575,92.1208491 142.229882,92.2307129 C141.271071,92.3305891 140.076205,92.3850664 138.645254,92.3941459 L138.208886,92.3955078 C136.582902,92.3955078 135.242583,92.3405767 134.18789,92.2307129 C133.133197,92.1208491 132.287259,91.9560558 131.650048,91.7363281 C131.012838,91.5166005 130.562403,91.241945 130.29873,90.9123535 C130.035057,90.582762 129.903222,90.1982444 129.903222,89.7587891 L129.903222,30.9599609 C129.903222,30.5205056 130.013084,30.135988 130.232812,29.8063965 C130.45254,29.476805 130.848044,29.2021495 131.419336,28.9824219 C131.990627,28.7626942 132.726704,28.5979009 133.627587,28.4880371 C134.528471,28.3781733 135.660051,28.3232422 137.022363,28.3232422 C138.42862,28.3232422 139.593159,28.3781733 140.516015,28.4880371 C141.438871,28.5979009 142.152976,28.7626942 142.658349,28.9824219 C143.163723,29.2021495 143.526268,29.476805 143.745996,29.8063965 C143.965723,30.135988 144.075586,30.5205056 144.075586,30.9599609 L144.075586,38.2768555 C145.613679,36.0795789 147.06386,34.2668528 148.426171,32.838623 C149.788483,31.4103932 151.084857,30.2788128 152.315332,29.4438477 C153.545807,28.6088825 154.776263,28.026613 156.006738,27.6970215 C157.237213,27.36743 158.467669,27.2026367 159.698144,27.2026367 C160.269436,27.2026367 160.884664,27.2355954 161.543847,27.3015137 C162.20303,27.367432 162.884176,27.4772942 163.587304,27.6311035 C164.290433,27.7849129 164.905661,27.9606924 165.433007,28.1584473 C165.960354,28.3562022 166.344871,28.5649403 166.586572,28.784668 C166.828272,29.0043956 167.004052,29.2460924 167.113916,29.5097656 C167.223779,29.7734388 167.322655,30.135984 167.410546,30.5974121 C167.498438,31.0588402 167.564355,31.7509719 167.6083,32.6738281 L167.63714,33.4277657 C167.661859,34.2434994 167.674218,35.244623 167.674218,36.4311523 Z M230.318701,58.6455078 C230.318701,60.6670023 229.868266,62.161128 228.967382,63.1279297 C228.066499,64.0947314 226.825056,64.578125 225.243017,64.578125 L189.44956,64.578125 C189.44956,67.0830203 189.746188,69.3571675 190.339453,71.4006348 C190.932717,73.444102 191.877532,75.1799245 193.173925,76.6081543 C194.470318,78.0363841 196.140224,79.1240197 198.183691,79.8710938 C200.227158,80.6181678 202.677085,80.9916992 205.533544,80.9916992 C208.433949,80.9916992 210.982752,80.7829611 213.180029,80.3654785 C215.377305,79.947996 217.277921,79.4865748 218.881933,78.9812012 L219.811379,78.6832512 C220.857278,78.3417959 221.768588,78.0218761 222.545323,77.7234868 L222.86997,77.5969238 C223.924663,77.1794413 224.781588,76.9707031 225.440771,76.9707031 C225.836281,76.9707031 226.165867,77.0476067 226.42954,77.201416 C226.693214,77.3552254 226.912938,77.6298808 227.08872,78.0253906 C227.264502,78.4209004 227.385351,78.9811975 227.451269,79.7062988 C227.517187,80.4314001 227.550146,81.3432562 227.550146,82.4418945 L227.544765,83.2356022 C227.535796,83.8678762 227.515618,84.4272785 227.484228,84.9138184 C227.440282,85.5949741 227.374365,86.1772437 227.286474,86.6606445 C227.198583,87.1440454 227.066748,87.5505355 226.890966,87.880127 C226.715184,88.2097184 226.484473,88.5283188 226.198828,88.8359375 C225.913182,89.1435562 225.13316,89.5610325 223.85874,90.0883789 C222.584319,90.6157253 220.958359,91.1320776 218.98081,91.6374512 C217.003261,92.1428248 214.7401,92.5822735 212.191259,92.9558105 C209.642418,93.3293476 206.917836,93.5161133 204.017431,93.5161133 C198.787913,93.5161133 194.20666,92.8569402 190.273535,91.5385742 C186.340409,90.2202083 183.05553,88.2207165 180.418798,85.5400391 C177.782066,82.8593616 175.815533,79.4756064 174.51914,75.3886719 C173.222747,71.3017374 172.57456,66.5117462 172.57456,61.0185547 C172.57456,55.7890364 173.255705,51.0759487 174.618017,46.8791504 C175.980328,42.6823521 177.957848,39.1228173 180.550634,36.2004395 C183.143421,33.2780616 186.296465,31.0478593 190.009863,29.5097656 C193.72326,27.971672 197.909009,27.2026367 202.567236,27.2026367 C207.489135,27.2026367 211.696857,27.9277271 215.190527,29.3779297 C218.684197,30.8281323 221.5516,32.8386102 223.792822,35.4094238 C226.034044,37.9802375 227.681977,41.0234199 228.736669,44.5390625 C229.791362,48.0547051 230.318701,51.877909 230.318701,56.0087891 L230.318701,58.6455078 Z M214.234716,53.8994141 C214.366553,49.2411876 213.432724,45.582777 211.433203,42.9240723 C209.433681,40.2653676 206.346553,38.9360352 202.171728,38.9360352 C200.062342,38.9360352 198.227644,39.331539 196.667578,40.1225586 C195.107511,40.9135782 193.811137,41.9792413 192.778417,43.3195801 C191.745697,44.6599188 190.95469,46.2419342 190.405371,48.0656738 C189.856051,49.8894134 189.537451,51.833974 189.44956,53.8994141 L214.234716,53.8994141 Z M297.90703,58.6455078 C297.90703,60.6670023 297.456596,62.161128 296.555712,63.1279297 C295.654829,64.0947314 294.413386,64.578125 292.831347,64.578125 L257.03789,64.578125 C257.03789,67.0830203 257.334518,69.3571675 257.927782,71.4006348 C258.521047,73.444102 259.465862,75.1799245 260.762255,76.6081543 C262.058648,78.0363841 263.728553,79.1240197 265.772021,79.8710938 C267.815488,80.6181678 270.265415,80.9916992 273.121874,80.9916992 C276.022279,80.9916992 278.571082,80.7829611 280.768359,80.3654785 C282.965635,79.947996 284.866251,79.4865748 286.470263,78.9812012 L287.399709,78.6832512 C288.445608,78.3417959 289.356918,78.0218761 290.133653,77.7234868 L290.4583,77.5969238 C291.512993,77.1794413 292.369918,76.9707031 293.029101,76.9707031 C293.424611,76.9707031 293.754197,77.0476067 294.01787,77.201416 C294.281543,77.3552254 294.501268,77.6298808 294.67705,78.0253906 C294.852832,78.4209004 294.973681,78.9811975 295.039599,79.7062988 C295.105517,80.4314001 295.138476,81.3432562 295.138476,82.4418945 C295.138476,83.4086962 295.116503,84.2326626 295.072558,84.9138184 C295.028612,85.5949741 294.962695,86.1772437 294.874804,86.6606445 C294.786913,87.1440454 294.655078,87.5505355 294.479296,87.880127 C294.303514,88.2097184 294.072803,88.5283188 293.787157,88.8359375 C293.501511,89.1435562 292.72149,89.5610325 291.44707,90.0883789 C290.172649,90.6157253 288.546689,91.1320776 286.56914,91.6374512 C284.591591,92.1428248 282.32843,92.5822735 279.779589,92.9558105 C277.230748,93.3293476 274.506166,93.5161133 271.605761,93.5161133 C266.376243,93.5161133 261.79499,92.8569402 257.861864,91.5385742 C253.928739,90.2202083 250.64386,88.2207165 248.007128,85.5400391 C245.370396,82.8593616 243.403863,79.4756064 242.10747,75.3886719 C240.811077,71.3017374 240.16289,66.5117462 240.16289,61.0185547 C240.16289,55.7890364 240.844035,51.0759487 242.206347,46.8791504 C243.568658,42.6823521 245.546178,39.1228173 248.138964,36.2004395 C250.73175,33.2780616 253.884795,31.0478593 257.598193,29.5097656 C261.31159,27.971672 265.497339,27.2026367 270.155566,27.2026367 C275.077465,27.2026367 279.285187,27.9277271 282.778857,29.3779297 C286.272526,30.8281323 289.139929,32.8386102 291.381152,35.4094238 C293.622374,37.9802375 295.270306,41.0234199 296.324999,44.5390625 C297.379692,48.0547051 297.90703,51.877909 297.90703,56.0087891 L297.90703,58.6455078 Z M281.823046,53.8994141 C281.954883,49.2411876 281.021054,45.582777 279.021532,42.9240723 C277.022011,40.2653676 273.934883,38.9360352 269.760058,38.9360352 C267.650672,38.9360352 265.815974,39.331539 264.255907,40.1225586 C262.695841,40.9135782 261.399467,41.9792413 260.366747,43.3195801 C259.334027,44.6599188 258.54302,46.2419342 257.9937,48.0656738 C257.444381,49.8894134 257.125781,51.833974 257.03789,53.8994141 L281.823046,53.8994141 Z M348.948119,35.6676001 L348.94995,36.4311523 C348.94995,38.0131915 348.906005,39.3095653 348.818114,40.3203125 C348.730223,41.3310597 348.598389,42.1220675 348.422606,42.6933594 C348.246824,43.2646513 348.016114,43.6601552 347.730468,43.8798828 C347.444822,44.0996105 347.082277,44.2094727 346.642821,44.2094727 C346.291257,44.2094727 345.895753,44.1325691 345.456298,43.9787598 L344.902587,43.7889159 C344.612548,43.6913576 344.302735,43.5898443 343.973144,43.484375 C343.423824,43.3085929 342.819582,43.1437996 342.160399,42.9899902 C341.501216,42.8361809 340.776126,42.7592773 339.985106,42.7592773 C339.06225,42.7592773 338.139408,42.9460431 337.216552,43.3195801 C336.293696,43.6931171 335.337895,44.2753867 334.34912,45.0664062 C333.360346,45.8574258 332.327641,46.9121028 331.250976,48.2304688 C330.17431,49.5488347 329.020757,51.174795 327.790282,53.1083984 L327.790282,89.7587891 C327.790282,90.1982444 327.658448,90.582762 327.394774,90.9123535 C327.131101,91.241945 326.680666,91.5166005 326.043456,91.7363281 C325.406246,91.9560558 324.560307,92.1208491 323.505614,92.2307129 C322.546803,92.3305891 321.351937,92.3850664 319.920986,92.3941459 L319.484618,92.3955078 C317.858633,92.3955078 316.518315,92.3405767 315.463622,92.2307129 C314.408929,92.1208491 313.56299,91.9560558 312.92578,91.7363281 C312.28857,91.5166005 311.838135,91.241945 311.574462,90.9123535 C311.310789,90.582762 311.178954,90.1982444 311.178954,89.7587891 L311.178954,30.9599609 C311.178954,30.5205056 311.288816,30.135988 311.508544,29.8063965 C311.728272,29.476805 312.123775,29.2021495 312.695067,28.9824219 C313.266359,28.7626942 314.002436,28.5979009 314.903319,28.4880371 C315.804203,28.3781733 316.935783,28.3232422 318.298095,28.3232422 C319.704352,28.3232422 320.868891,28.3781733 321.791747,28.4880371 C322.714603,28.5979009 323.428707,28.7626942 323.934081,28.9824219 C324.439455,29.2021495 324.802,29.476805 325.021728,29.8063965 C325.241455,30.135988 325.351317,30.5205056 325.351317,30.9599609 L325.351317,38.2768555 C326.889411,36.0795789 328.339592,34.2668528 329.701903,32.838623 C331.064215,31.4103932 332.360589,30.2788128 333.591063,29.4438477 C334.821538,28.6088825 336.051995,28.026613 337.28247,27.6970215 C338.512945,27.36743 339.743401,27.2026367 340.973876,27.2026367 C341.545168,27.2026367 342.160396,27.2355954 342.819579,27.3015137 C343.478762,27.367432 344.159908,27.4772942 344.863036,27.6311035 C345.566165,27.7849129 346.181393,27.9606924 346.708739,28.1584473 C347.236086,28.3562022 347.620603,28.5649403 347.862304,28.784668 C348.104004,29.0043956 348.279784,29.2460924 348.389647,29.5097656 C348.499511,29.7734388 348.598387,30.135984 348.686278,30.5974121 C348.774169,31.0588402 348.840087,31.7509719 348.884032,32.6738281 L348.904174,33.1627208 C348.928588,33.8511973 348.943236,34.6861534 348.948119,35.6676001 L348.948119,35.6676001 Z M445.103172,89.7587891 C445.103172,90.1982444 444.971338,90.582762 444.707665,90.9123535 C444.443991,91.241945 444.004543,91.5166005 443.389305,91.7363281 C442.774068,91.9560558 441.928129,92.1208491 440.851463,92.2307129 C439.774798,92.3405767 438.445466,92.3955078 436.863426,92.3955078 C435.237442,92.3955078 433.886137,92.3405767 432.809471,92.2307129 C431.732806,92.1208491 430.886867,91.9560558 430.271629,91.7363281 C429.656392,91.5166005 429.216943,91.241945 428.95327,90.9123535 C428.689597,90.582762 428.557762,90.1982444 428.557762,89.7587891 L428.557762,56.206543 C428.557762,53.3500834 428.349024,51.1088948 427.931542,49.4829102 C427.514059,47.8569255 426.909817,46.4616757 426.118797,45.2971191 C425.327778,44.1325625 424.30606,43.2316926 423.053612,42.5944824 C421.801164,41.9572722 420.339997,41.6386719 418.670067,41.6386719 C416.560681,41.6386719 414.429355,42.4077072 412.276024,43.9458008 C410.122693,45.4838944 407.881504,47.7250829 405.552391,50.6694336 L405.552391,89.7587891 C405.552391,90.1982444 405.420557,90.582762 405.156883,90.9123535 C404.89321,91.241945 404.442775,91.5166005 403.805565,91.7363281 C403.168355,91.9560558 402.322416,92.1208491 401.267723,92.2307129 C400.308912,92.3305891 399.114046,92.3850664 397.683095,92.3941459 L397.246727,92.3955078 C395.620742,92.3955078 394.280424,92.3405767 393.225731,92.2307129 C392.171038,92.1208491 391.325099,91.9560558 390.687889,91.7363281 C390.050679,91.5166005 389.600244,91.241945 389.336571,90.9123535 C389.072898,90.582762 388.941063,90.1982444 388.941063,89.7587891 L388.941063,3.07666016 C388.941063,2.63720483 389.072898,2.24170098 389.336571,1.89013672 C389.600244,1.53857246 390.050679,1.24194457 390.687889,1.00024414 C391.325099,0.758543713 392.171038,0.571778003 393.225731,0.439941406 C394.184543,0.320089955 395.379409,0.254717253 396.810359,0.243821815 L397.246727,0.2421875 C398.872712,0.2421875 400.21303,0.30810481 401.267723,0.439941406 C402.322416,0.571778003 403.168355,0.758543713 403.805565,1.00024414 C404.442775,1.24194457 404.89321,1.53857246 405.156883,1.89013672 C405.420557,2.24170098 405.552391,2.63720483 405.552391,3.07666016 L405.552391,35.5742188 C408.408851,32.7617047 411.320199,30.663337 414.286522,29.2790527 C417.252845,27.8947685 420.339973,27.2026367 423.547997,27.2026367 C427.54704,27.2026367 430.919809,27.8618098 433.666405,29.1801758 C436.413001,30.4985417 438.632217,32.3002815 440.32412,34.5854492 C442.016023,36.8706169 443.235493,39.5402679 443.982567,42.5944824 C444.729641,45.6486969 445.103172,49.3510525 445.103172,53.7016602 L445.103172,89.7587891 Z M511.109471,89.956543 C511.109471,90.5717804 510.889747,91.055174 510.450291,91.4067383 C510.010836,91.7583025 509.318704,92.0109856 508.373875,92.1647949 C507.496534,92.3076179 506.23082,92.3841292 504.576699,92.3943307 L504.188084,92.3955078 C502.210535,92.3955078 500.771341,92.3186043 499.870457,92.1647949 C498.969574,92.0109856 498.332373,91.7583025 497.958836,91.4067383 C497.585299,91.055174 497.398534,90.5717804 497.398534,89.956543 L497.398534,85.2763672 C494.981529,87.8691536 492.223989,89.8906177 489.125829,91.3408203 C486.027668,92.7910229 482.588982,93.5161133 478.809666,93.5161133 C475.689534,93.5161133 472.822131,93.1096232 470.207371,92.2966309 C467.592612,91.4836385 465.329451,90.2751545 463.417821,88.6711426 C461.50619,87.0671307 460.023051,85.0786251 458.968358,82.7055664 C457.913665,80.3325077 457.386327,77.5639807 457.386327,74.3999023 C457.386327,70.9721508 458.056486,67.9948857 459.396825,65.4680176 C460.737163,62.9411495 462.736655,60.853768 465.39536,59.2058105 C468.054064,57.5578531 471.360916,56.3383829 475.316014,55.5473633 C479.271112,54.7563437 483.863351,54.3608398 489.09287,54.3608398 L494.827733,54.3608398 L494.827733,50.8012695 C494.827733,48.9555572 494.640967,47.3405831 494.26743,45.9562988 C493.893893,44.5720146 493.278665,43.4184616 492.421727,42.4956055 C491.564789,41.5727493 490.422222,40.8916038 488.993993,40.4521484 C487.565763,40.0126931 485.796982,39.7929688 483.687596,39.7929688 C480.919028,39.7929688 478.447128,40.1005829 476.271825,40.7158203 C474.096521,41.3310578 472.173933,42.0122033 470.504002,42.7592773 C469.001065,43.431644 467.720619,44.0506085 466.662634,44.6161859 L466.318211,44.8027344 C465.1976,45.4179718 464.285744,45.7255859 463.582616,45.7255859 C463.099215,45.7255859 462.670752,45.5717789 462.297215,45.2641602 C461.923678,44.9565414 461.616064,44.5170927 461.374364,43.9458008 C461.132663,43.3745089 460.945898,42.6713909 460.814061,41.8364258 C460.682224,41.0014607 460.616307,40.0786183 460.616307,39.0678711 C460.616307,37.7055596 460.726169,36.6289102 460.945897,35.8378906 C461.165625,35.046871 461.583101,34.3327669 462.198338,33.6955566 C462.813576,33.0583464 463.890225,32.3552285 465.428319,31.5861816 C466.966412,30.8171348 468.768152,30.1030306 470.833592,29.4438477 C472.899032,28.7846647 475.151207,28.24634 477.590184,27.8288574 C480.029161,27.4113749 482.545005,27.2026367 485.137791,27.2026367 C489.752072,27.2026367 493.696125,27.6530717 496.970067,28.5539551 C500.244009,29.4548385 502.935632,30.839102 505.045018,32.7067871 C507.154404,34.5744722 508.692474,36.980454 509.659276,39.9248047 C510.626077,42.8691553 511.109471,46.3627728 511.109471,50.4057617 L511.109471,89.956543 Z M494.827733,64.7758789 L488.499608,64.7758789 C485.81893,64.7758789 483.533797,64.9736308 481.644139,65.3691406 C479.754481,65.7646504 478.216411,66.3579062 477.029881,67.1489258 C475.843352,67.9399454 474.975441,68.8957464 474.426121,70.0163574 C473.876802,71.1369685 473.602147,72.422356 473.602147,73.8725586 C473.602147,76.3335084 474.382168,78.2670828 475.942235,79.6733398 C477.502301,81.0795969 479.666586,81.7827148 482.435155,81.7827148 C484.764268,81.7827148 486.90658,81.1894591 488.862157,80.0029297 C490.817733,78.8164003 492.806238,77.0805778 494.827733,74.7954102 L494.827733,64.7758789 Z M571.776414,80.3984375 L571.770234,81.220354 C571.757875,82.0072497 571.726976,82.689084 571.677537,83.2658691 C571.611619,84.034916 571.523729,84.6831028 571.413865,85.2104492 C571.304002,85.7377956 571.172167,86.1662581 571.018358,86.4958496 C570.864548,86.8254411 570.523975,87.2429174 569.996629,87.748291 C569.469283,88.2536646 568.568413,88.8688929 567.293992,89.5939941 C566.019572,90.3190954 564.569391,90.9672823 562.943406,91.5385742 C561.317422,92.1098661 559.548641,92.5712873 557.63701,92.9228516 C555.725379,93.2744158 553.758846,93.4501953 551.737352,93.4501953 C547.210962,93.4501953 543.200992,92.7470773 539.707322,91.3408203 C536.213653,89.9345633 533.280332,87.858168 530.907274,85.1115723 C528.534215,82.3649765 526.743461,79.0141799 525.534959,75.059082 C524.326457,71.1039841 523.722215,66.5776622 523.722215,61.4799805 C523.722215,55.5912792 524.458292,50.5046601 525.930467,46.2199707 C527.402642,41.9352813 529.457065,38.3867328 532.093797,35.5742188 C534.730529,32.7617047 537.850615,30.6743232 541.454149,29.3120117 C545.057682,27.9497002 549.012721,27.2685547 553.319383,27.2685547 C555.077204,27.2685547 556.802041,27.4223617 558.493944,27.7299805 C560.185847,28.0375992 561.767862,28.4550755 563.240037,28.9824219 C564.712213,29.5097683 566.030559,30.103024 567.195115,30.762207 C568.359672,31.42139 569.183638,31.9926734 569.667039,32.4760742 C570.15044,32.9594751 570.491013,33.3659651 570.688768,33.6955566 C570.886523,34.0251481 571.04033,34.4536106 571.150194,34.980957 C571.244363,35.4329682 571.322387,35.9737602 571.38427,36.6033451 L571.413865,36.9255371 C571.479784,37.6945839 571.512742,38.6284125 571.512742,39.7270508 C571.512742,42.2758917 571.293018,44.0666452 570.853563,45.0993652 C570.414107,46.1320852 569.842824,46.6484375 569.139695,46.6484375 C568.392621,46.6484375 567.601614,46.3408234 566.766649,45.7255859 C565.931684,45.1103485 564.942924,44.429203 563.80034,43.6821289 C562.657756,42.9350549 561.295465,42.2539093 559.713426,41.6386719 C558.131387,41.0234344 556.241757,40.7158203 554.044481,40.7158203 C549.737818,40.7158203 546.441953,42.3747393 544.156785,45.692627 C541.871618,49.0105146 540.729051,53.8774093 540.729051,60.293457 C540.729051,63.4575354 541.014693,66.2480348 541.585985,68.6650391 C542.157276,71.0820433 543.003215,73.1035075 544.123826,74.7294922 C545.244437,76.3554769 546.650673,77.5749471 548.342576,78.3879395 C550.034479,79.2009318 552.001012,79.6074219 554.242235,79.6074219 C556.527402,79.6074219 558.493935,79.2668491 560.141893,78.5856934 C561.78985,77.9045376 563.229045,77.1464885 564.45952,76.3115234 C565.689995,75.4765583 566.722699,74.7185093 567.557664,74.0373535 C568.392629,73.3561978 569.095747,73.015625 569.667039,73.015625 C570.062549,73.015625 570.392136,73.1254872 570.655809,73.3452148 C570.919482,73.5649425 571.12822,73.9714326 571.282029,74.5646973 C571.435839,75.157962 571.556687,75.916011 571.644578,76.8388672 C571.732469,77.7617234 571.776414,78.9482349 571.776414,80.3984375 Z M638.046385,89.824707 C638.046385,90.2641624 637.925536,90.64868 637.683836,90.9782715 C637.442135,91.307863 637.002687,91.5715322 636.365477,91.7692871 C635.728266,91.967042 634.860355,92.1208491 633.761717,92.2307129 C632.754632,92.3314214 631.470616,92.3859712 629.909637,92.3943634 L629.477049,92.3955078 C627.675282,92.3955078 626.214115,92.3515629 625.093504,92.2636719 C623.972893,92.1757808 623.05005,92.03296 622.324949,91.8352051 C621.599848,91.6374502 621.039551,91.3627947 620.644041,91.0112305 C620.248531,90.6596662 619.896972,90.198245 619.589354,89.6269531 L600.011717,58.6455078 L600.011717,89.7587891 C600.011717,90.1982444 599.879882,90.582762 599.616209,90.9123535 C599.352536,91.241945 598.902101,91.5166005 598.264891,91.7363281 C597.62768,91.9560558 596.781742,92.1208491 595.727049,92.2307129 C594.768237,92.3305891 593.573371,92.3850664 592.14242,92.3941459 L591.706053,92.3955078 C590.080068,92.3955078 588.739749,92.3405767 587.685057,92.2307129 C586.630364,92.1208491 585.784425,91.9560558 585.147215,91.7363281 C584.510005,91.5166005 584.05957,91.241945 583.795896,90.9123535 C583.532223,90.582762 583.400389,90.1982444 583.400389,89.7587891 L583.400389,3.07666016 C583.400389,2.63720483 583.532223,2.24170098 583.795896,1.89013672 C584.05957,1.53857246 584.510005,1.24194457 585.147215,1.00024414 C585.784425,0.758543713 586.630364,0.571778003 587.685057,0.439941406 C588.643868,0.320089955 589.838734,0.254717253 591.269685,0.243821815 L591.706053,0.2421875 C593.332037,0.2421875 594.672356,0.30810481 595.727049,0.439941406 C596.781742,0.571778003 597.62768,0.758543713 598.264891,1.00024414 C598.902101,1.24194457 599.352536,1.53857246 599.616209,1.89013672 C599.879882,2.24170098 600.011717,2.63720483 600.011717,3.07666016 L600.011717,54.6904297 L617.414061,31.2895508 C617.765625,30.7622044 618.161129,30.3007832 618.600584,29.9052734 C619.040039,29.5097636 619.622309,29.2021495 620.34741,28.9824219 C621.072511,28.7626942 621.973381,28.5979009 623.050047,28.4880371 C624.028834,28.3881609 625.252754,28.3336836 626.721839,28.3246041 L627.16992,28.3232422 C628.795905,28.3232422 630.169182,28.3781733 631.289793,28.4880371 C632.410404,28.5979009 633.311274,28.7626942 633.99243,28.9824219 C634.673585,29.2021495 635.145993,29.476805 635.409666,29.8063965 C635.673339,30.135988 635.805174,30.5424781 635.805174,31.0258789 C635.805174,31.6850619 635.640381,32.3881799 635.310789,33.1352539 C634.981198,33.882328 634.486818,34.6733357 633.827635,35.5083008 L616.623045,55.0200195 L636.530271,85.8037109 C637.057618,86.6826216 637.442135,87.4406706 637.683836,88.0778809 C637.925536,88.7150911 638.046385,89.2973606 638.046385,89.824707 Z M664.435984,89.7587891 C664.435984,90.1982444 664.30415,90.582762 664.040476,90.9123535 C663.776803,91.241945 663.326368,91.5166005 662.689158,91.7363281 C662.051948,91.9560558 661.206009,92.1208491 660.151316,92.2307129 C659.192505,92.3305891 657.997639,92.3850664 656.566688,92.3941459 L656.13032,92.3955078 C654.504335,92.3955078 653.164017,92.3405767 652.109324,92.2307129 C651.054631,92.1208491 650.208692,91.9560558 649.571482,91.7363281 C648.934272,91.5166005 648.483837,91.241945 648.220164,90.9123535 C647.956491,90.582762 647.824656,90.1982444 647.824656,89.7587891 L647.824656,31.0917969 C647.824656,30.6523416 647.956491,30.2678239 648.220164,29.9382324 C648.483837,29.6086409 648.934272,29.3229993 649.571482,29.0812988 C650.208692,28.8395984 651.054631,28.6528327 652.109324,28.5209961 C653.068136,28.4011446 654.263002,28.3357719 655.693952,28.3248765 L656.13032,28.3232422 C657.756305,28.3232422 659.096623,28.3891595 660.151316,28.5209961 C661.206009,28.6528327 662.051948,28.8395984 662.689158,29.0812988 C663.326368,29.3229993 663.776803,29.6086409 664.040476,29.9382324 C664.30415,30.2678239 664.435984,30.6523416 664.435984,31.0917969 L664.435984,89.7587891 Z M665.688426,11.0527344 C665.688426,14.3925948 665.00728,16.6997007 663.644969,17.9741211 C662.282657,19.2485415 659.755827,19.8857422 656.064402,19.8857422 C652.329032,19.8857422 649.813188,19.270514 648.516795,18.0400391 C647.220402,16.8095642 646.572215,14.5903481 646.572215,11.3823242 C646.572215,8.04246377 647.242374,5.72437172 648.582713,4.42797852 C649.923051,3.13158531 652.460868,2.48339844 656.196238,2.48339844 C659.887663,2.48339844 662.392521,3.10961288 663.710887,4.36206055 C665.029252,5.61450822 665.688426,7.84471052 665.688426,11.0527344 Z M736.770408,89.7587891 C736.770408,90.1982444 736.638573,90.582762 736.3749,90.9123535 C736.111227,91.241945 735.671778,91.5166005 735.056541,91.7363281 C734.441303,91.9560558 733.595364,92.1208491 732.518699,92.2307129 C731.442033,92.3405767 730.112701,92.3955078 728.530662,92.3955078 C726.904677,92.3955078 725.553372,92.3405767 724.476707,92.2307129 C723.400041,92.1208491 722.554102,91.9560558 721.938865,91.7363281 C721.323627,91.5166005 720.884179,91.241945 720.620505,90.9123535 C720.356832,90.582762 720.224998,90.1982444 720.224998,89.7587891 L720.224998,56.206543 C720.224998,53.3500834 720.016259,51.1088948 719.598777,49.4829102 C719.181294,47.8569255 718.577052,46.4616757 717.786033,45.2971191 C716.995013,44.1325625 715.973295,43.2316926 714.720847,42.5944824 C713.4684,41.9572722 712.007233,41.6386719 710.337302,41.6386719 C708.227917,41.6386719 706.09659,42.4077072 703.943259,43.9458008 C701.789928,45.4838944 699.54874,47.7250829 697.219627,50.6694336 L697.219627,89.7587891 C697.219627,90.1982444 697.087792,90.582762 696.824119,90.9123535 C696.560446,91.241945 696.110011,91.5166005 695.4728,91.7363281 C694.83559,91.9560558 693.989651,92.1208491 692.934959,92.2307129 C691.976147,92.3305891 690.781281,92.3850664 689.35033,92.3941459 L688.913962,92.3955078 C687.287978,92.3955078 685.947659,92.3405767 684.892966,92.2307129 C683.838274,92.1208491 682.992335,91.9560558 682.355125,91.7363281 C681.717914,91.5166005 681.267479,91.241945 681.003806,90.9123535 C680.740133,90.582762 680.608298,90.1982444 680.608298,89.7587891 L680.608298,30.9599609 C680.608298,30.5205056 680.718161,30.135988 680.937888,29.8063965 C681.157616,29.476805 681.55312,29.2021495 682.124412,28.9824219 C682.695704,28.7626942 683.43178,28.5979009 684.332664,28.4880371 C685.233547,28.3781733 686.365128,28.3232422 687.727439,28.3232422 C689.133696,28.3232422 690.298235,28.3781733 691.221091,28.4880371 C692.143948,28.5979009 692.858052,28.7626942 693.363425,28.9824219 C693.868799,29.2021495 694.231344,29.476805 694.451072,29.8063965 C694.6708,30.135988 694.780662,30.5205056 694.780662,30.9599609 L694.780662,37.7495117 C698.032631,34.2338691 701.339483,31.5971768 704.701316,29.8393555 C708.063149,28.0815342 711.567753,27.2026367 715.215232,27.2026367 C719.214275,27.2026367 722.587044,27.8618098 725.33364,29.1801758 C728.080236,30.4985417 730.299452,32.2892953 731.991355,34.5524902 C733.683258,36.8156851 734.902728,39.4633637 735.649802,42.4956055 C736.396876,45.5278472 736.770408,49.1752717 736.770408,53.4379883 L736.770408,89.7587891 Z M774.497898,27.4663086 C776.34361,27.4663086 778.112391,27.5761708 779.804294,27.7958984 C781.496197,28.0156261 783.067227,28.3232402 784.517429,28.71875 L803.172214,28.71875 C803.919288,28.71875 804.52353,29.2021436 804.984958,30.1689453 C805.446386,31.135747 805.677097,32.7617073 805.677097,35.046875 C805.677097,37.1562605 805.4354,38.7163035 804.951999,39.7270508 C804.468599,40.737798 803.875343,41.2431641 803.172214,41.2431641 L796.250828,41.2431641 C797.217629,42.2978568 797.909761,43.4953546 798.327244,44.8356934 C798.744726,46.1760321 798.953464,47.5712818 798.953464,49.0214844 C798.953464,52.4492359 798.382181,55.4924183 797.239597,58.151123 C796.097013,60.8098277 794.460067,63.0510163 792.328708,64.8747559 C790.19735,66.6984954 787.626575,68.0827589 784.616306,69.0275879 C781.606037,69.9724168 778.255241,70.4448242 774.563816,70.4448242 C772.674158,70.4448242 770.872418,70.2141136 769.158542,69.7526855 C767.444667,69.2912575 766.12632,68.7529328 765.203464,68.1376953 C764.676118,68.7089872 764.20371,69.3901328 763.786228,70.1811523 C763.368745,70.9721719 763.160007,71.8510694 763.160007,72.8178711 C763.160007,74.0922915 763.720304,75.1359823 764.840915,75.9489746 C765.961526,76.761967 767.532556,77.2124019 769.55405,77.300293 L783.858249,77.8276367 C787.19811,77.9594733 790.175375,78.4318807 792.790134,79.244873 C795.404893,80.0578654 797.602137,81.2004321 799.381931,82.6726074 C801.161725,84.1447828 802.524016,85.9135639 803.468845,87.9790039 C804.413674,90.0444439 804.886081,92.3954946 804.886081,95.0322266 C804.886081,97.9326317 804.248881,100.6682 802.97446,103.239014 C801.70004,105.809827 799.788438,108.04003 797.239597,109.929688 C794.690756,111.819345 791.493767,113.313471 787.648533,114.412109 C783.803299,115.510748 779.309935,116.060059 774.168308,116.060059 C769.158517,116.060059 764.884878,115.664555 761.347263,114.873535 C757.809648,114.082516 754.909286,112.983894 752.646091,111.577637 C750.382896,110.17138 748.734964,108.490488 747.702244,106.534912 C746.669524,104.579336 746.153171,102.437023 746.153171,100.10791 C746.153171,98.6577076 746.339937,97.2734441 746.713474,95.9550781 C747.087011,94.6367122 747.636322,93.3732971 748.361423,92.1647949 C749.086525,90.9562928 749.976408,89.8027399 751.031101,88.7041016 C752.085794,87.6054633 753.294278,86.5507863 754.656589,85.5400391 C752.766931,84.5292918 751.305764,83.1560145 750.273044,81.420166 C749.240324,79.6843175 748.723972,77.7837017 748.723972,75.7182617 C748.723972,73.1254753 749.317228,70.7634384 750.503757,68.6320801 C751.690287,66.5007218 753.228357,64.5781336 755.118015,62.8642578 C753.579921,61.3261642 752.349465,59.4804795 751.426609,57.3271484 C750.503753,55.1738174 750.042331,52.4931801 750.042331,49.2851562 C750.042331,45.8574047 750.646573,42.7922498 751.855076,40.0895996 C753.063578,37.3869494 754.744469,35.101816 756.8978,33.2341309 C759.051131,31.3664457 761.621906,29.9382374 764.610203,28.9494629 C767.598499,27.9606884 770.894364,27.4663086 774.497898,27.4663086 Z M767.576511,89.2973633 C766.433927,90.1323284 765.522071,90.9343223 764.840915,91.7033691 C764.15976,92.472416 763.610449,93.2084926 763.192966,93.9116211 C762.775484,94.6147496 762.500828,95.2958951 762.368992,95.9550781 C762.237155,96.6142611 762.171238,97.2954066 762.171238,97.9985352 C762.171238,100.195812 763.280846,101.865717 765.500095,103.008301 C767.719344,104.150885 770.850417,104.722168 774.893406,104.722168 C777.398301,104.722168 779.507655,104.469485 781.221531,103.964111 C782.935406,103.458738 784.31967,102.788578 785.374363,101.953613 C786.429055,101.118648 787.176118,100.18482 787.615574,99.1520996 C788.055029,98.1193796 788.274753,97.031744 788.274753,95.8891602 C788.274753,93.9116112 787.483746,92.3955131 785.901706,91.3408203 C784.319667,90.2861275 782.144396,89.7148442 779.375828,89.6269531 L779.375828,89.6269531 Z M784.385593,48.9555664 C784.385593,45.7914881 783.506696,43.3305752 781.748874,41.5727539 C779.991053,39.8149326 777.508168,38.9360352 774.300144,38.9360352 C772.674159,38.9360352 771.245951,39.2106906 770.015476,39.7600098 C768.785001,40.3093289 767.763283,41.0563918 766.95029,42.0012207 C766.137298,42.9460496 765.533056,44.0446715 765.137546,45.2971191 C764.742036,46.5495668 764.544285,47.8569268 764.544285,49.2192383 C764.544285,52.2075345 765.423182,54.5695714 767.181003,56.3054199 C768.938825,58.0412684 771.377765,58.9091797 774.497898,58.9091797 C776.167828,58.9091797 777.618009,58.6455104 778.848484,58.1181641 C780.078959,57.5908177 781.100677,56.8657273 781.913669,55.9428711 C782.726662,55.0200149 783.34189,53.9543517 783.759372,52.7458496 C784.176855,51.5373475 784.385593,50.2739324 784.385593,48.9555664 Z" id="careerhacking"></path>
                    <path d="M22.3710938,125.34668 L22.3655932,125.873367 C22.3564255,126.285914 22.3357982,126.632567 22.3037109,126.91333 C22.2587888,127.306398 22.1914067,127.609618 22.1015625,127.822998 C22.0117183,128.036378 21.9106451,128.182373 21.7983398,128.260986 C21.6860346,128.3396 21.5625007,128.378906 21.4277344,128.378906 C21.270507,128.378906 21.0964365,128.3396 20.9055176,128.260986 C20.7145987,128.182373 20.4787612,128.098145 20.197998,128.008301 C19.9172349,127.918457 19.5859394,127.834229 19.2041016,127.755615 C18.8222637,127.677002 18.3730495,127.637695 17.8564453,127.637695 C17.249997,127.637695 16.7277854,127.733153 16.2897949,127.924072 C15.8518045,128.114991 15.4868179,128.418211 15.1948242,128.83374 C14.9028306,129.24927 14.6894538,129.788327 14.5546875,130.450928 C14.4199212,131.113529 14.3525391,131.92773 14.3525391,132.893555 L14.3525391,135.65625 L19.8442383,135.65625 C20.0463877,135.65625 20.2316886,135.712402 20.4001465,135.824707 C20.5686044,135.937012 20.7089838,136.122313 20.8212891,136.380615 C20.9335943,136.638917 21.017822,136.992674 21.0739746,137.441895 C21.1301272,137.891116 21.1582031,138.441403 21.1582031,139.092773 C21.1582031,140.328131 21.0458996,141.209714 20.8212891,141.737549 C20.5966786,142.265383 20.2709982,142.529297 19.8442383,142.529297 L14.3525391,142.529297 L14.3525391,166.854492 C14.3525391,167.079103 14.2851569,167.275634 14.1503906,167.444092 C14.0156243,167.61255 13.7910172,167.752929 13.4765625,167.865234 C13.1621078,167.97754 12.7241239,168.061767 12.1625977,168.11792 C11.6010714,168.174073 10.9160197,168.202148 10.1074219,168.202148 C9.29882408,168.202148 8.61938752,168.174073 8.0690918,168.11792 C7.51879608,168.061767 7.08081218,167.97754 6.75512695,167.865234 C6.42944173,167.752929 6.2048346,167.61255 6.08129883,167.444092 C5.95776305,167.275634 5.89599609,167.079103 5.89599609,166.854492 L5.89599609,142.529297 L2.12255859,142.529297 C1.69579865,142.529297 1.37573349,142.265383 1.16235352,141.737549 C0.948973542,141.209714 0.842285156,140.328131 0.842285156,139.092773 C0.842285156,138.441403 0.870361047,137.891116 0.926513672,137.441895 C0.982666296,136.992674 1.06127879,136.638917 1.16235352,136.380615 C1.26342824,136.122313 1.39819252,135.937012 1.56665039,135.824707 C1.73510826,135.712402 1.9316395,135.65625 2.15625,135.65625 L5.89599609,135.65625 L5.89599609,133.129395 C5.89599609,131.085439 6.09814251,129.294197 6.50244141,127.755615 C6.9067403,126.217033 7.54125544,124.936773 8.40600586,123.914795 C9.27075628,122.892817 10.3713312,122.123538 11.7077637,121.606934 C13.0441961,121.090329 14.6220612,120.832031 16.4414062,120.832031 C17.3173872,120.832031 18.1484336,120.905029 18.9345703,121.051025 C19.7207071,121.197022 20.3383767,121.354247 20.7875977,121.522705 C21.2368187,121.691163 21.5400383,121.848388 21.6972656,121.994385 C21.854493,122.140382 21.9836421,122.353758 22.0847168,122.634521 C22.1857915,122.915285 22.2587888,123.274656 22.3037109,123.712646 C22.348633,124.150637 22.3710938,124.695309 22.3710938,125.34668 Z M55.2316698,151.524902 C55.2316698,154.085462 54.8947591,156.421376 54.2209276,158.532715 C53.5470961,160.644054 52.5251337,162.463371 51.1550097,163.990723 C49.7848856,165.518074 48.0666411,166.697261 46.0002245,167.52832 C43.9338079,168.359379 41.5192813,168.774902 38.7565722,168.774902 C36.0837072,168.774902 33.7590235,168.404301 31.7824511,167.663086 C29.8058787,166.921871 28.1662467,165.843757 26.8635058,164.428711 C25.5607649,163.013665 24.5949542,161.27296 23.9660448,159.206543 C23.3371354,157.140126 23.0226855,154.781752 23.0226855,152.131348 C23.0226855,149.570788 23.3652113,147.229259 24.0502733,145.106689 C24.7353354,142.98412 25.762913,141.164803 27.133037,139.648682 C28.5031611,138.132561 30.2157904,136.958989 32.2709765,136.12793 C34.3261625,135.296871 36.735074,134.881348 39.4977831,134.881348 C42.1931091,134.881348 44.5290232,135.246334 46.5055956,135.976318 C48.482168,136.706302 50.1161849,137.778802 51.4076952,139.193848 C52.6992056,140.608894 53.6594011,142.349599 54.2883105,144.416016 C54.9172198,146.482432 55.2316698,148.852037 55.2316698,151.524902 Z M46.5055956,151.861816 C46.5055956,150.379387 46.3876769,149.014899 46.1518358,147.768311 C45.9159948,146.521722 45.5173172,145.437993 44.9557909,144.51709 C44.3942647,143.596187 43.647446,142.877444 42.7153124,142.36084 C41.7831788,141.844236 40.6096066,141.585938 39.1945605,141.585938 C37.9367417,141.585938 36.8361667,141.81616 35.8928026,142.276611 C34.9494386,142.737063 34.174544,143.410884 33.5680956,144.298096 C32.9616473,145.185307 32.5068178,146.252191 32.2035937,147.498779 C31.9003695,148.745368 31.7487597,150.166008 31.7487597,151.760742 C31.7487597,153.243171 31.8722936,154.60766 32.1193651,155.854248 C32.3664367,157.100836 32.7651143,158.184566 33.3154101,159.105469 C33.8657058,160.026372 34.6125245,160.739499 35.5558886,161.244873 C36.4992527,161.750247 37.6672097,162.00293 39.0597948,162.00293 C40.3400747,162.00293 41.45188,161.772707 42.395244,161.312256 C43.3386081,160.851804 44.1135027,160.183598 44.7199511,159.307617 C45.3263994,158.431636 45.7756137,157.370368 46.0676073,156.123779 C46.359601,154.877191 46.5055956,153.456551 46.5055956,151.861816 Z M81.050742,139.598145 C81.050742,140.406742 81.0282813,141.069333 80.9833592,141.585938 C80.9384371,142.102542 80.871055,142.506834 80.7812108,142.798828 C80.6913666,143.090822 80.5734478,143.292968 80.427451,143.405273 C80.2814542,143.517579 80.0961533,143.57373 79.8715428,143.57373 C79.6918544,143.57373 79.489708,143.534424 79.2650975,143.455811 L78.7784442,143.291097 C78.6910962,143.262397 78.6006285,143.233073 78.5070408,143.203125 C78.2262777,143.113281 77.9174429,143.029053 77.5805272,142.950439 C77.2436114,142.871826 76.8730096,142.83252 76.4687108,142.83252 C75.9970287,142.83252 75.5253537,142.927978 75.0536717,143.118896 C74.5819896,143.309815 74.0934691,143.60742 73.5880955,144.011719 C73.0827219,144.416018 72.5548951,144.955075 72.0045994,145.628906 C71.4543037,146.302738 70.86471,147.133784 70.2358006,148.12207 L70.2358006,166.854492 C70.2358006,167.079103 70.1684185,167.275634 70.0336522,167.444092 C69.8988859,167.61255 69.6686636,167.752929 69.3429783,167.865234 C69.0172931,167.97754 68.5849244,168.061767 68.0458592,168.11792 C67.506794,168.174073 66.8217423,168.202148 65.9906834,168.202148 C65.1596246,168.202148 64.4745728,168.174073 63.9355076,168.11792 C63.3964424,168.061767 62.9640737,167.97754 62.6383885,167.865234 C62.3127033,167.752929 62.082481,167.61255 61.9477147,167.444092 C61.8129484,167.275634 61.7455662,167.079103 61.7455662,166.854492 L61.7455662,136.801758 C61.7455662,136.577147 61.801718,136.380616 61.9140233,136.212158 C62.0263285,136.0437 62.2284749,135.903321 62.5204686,135.791016 C62.8124622,135.67871 63.1886792,135.594483 63.6491307,135.53833 C64.0438034,135.490199 64.5251052,135.462696 65.0930471,135.45582 L65.3842381,135.454102 C66.1029917,135.454102 66.6982006,135.482177 67.1698826,135.53833 C67.6415647,135.594483 68.0065513,135.67871 68.2648533,135.791016 C68.5231554,135.903321 68.7084563,136.0437 68.8207615,136.212158 C68.9330668,136.380616 68.9892186,136.577147 68.9892186,136.801758 L68.9892186,140.541504 C69.7753553,139.418451 70.5165588,138.491947 71.2128514,137.761963 C71.9091439,137.031979 72.571735,136.453615 73.2006443,136.026855 C73.8295537,135.600096 74.4584537,135.302491 75.0873631,135.134033 C75.7162725,134.965575 76.3451725,134.881348 76.9740818,134.881348 C77.2660755,134.881348 77.5805255,134.898193 77.9174412,134.931885 C78.254357,134.965576 78.602498,135.021728 78.9618748,135.100342 C79.3212516,135.178955 79.6357016,135.268798 79.9052342,135.369873 C80.1747668,135.470948 80.371298,135.577636 80.4948338,135.689941 C80.6183696,135.802247 80.7082124,135.925781 80.764365,136.060547 C80.8205177,136.195313 80.8710543,136.380614 80.9159764,136.616455 C80.9608985,136.852296 80.9945895,137.206052 81.0170506,137.677734 L81.0375813,138.279442 C81.0463551,138.653205 81.050742,139.092771 81.050742,139.598145 Z M147.479414,136.734375 C147.479414,136.981447 147.445723,137.284666 147.378339,137.644043 L147.317274,137.943054 C147.24568,138.271545 147.1425,138.688474 147.007734,139.193848 L138.989179,166.382812 C138.876874,166.76465 138.730879,167.073485 138.551191,167.309326 C138.371503,167.545167 138.096359,167.730468 137.725752,167.865234 C137.355144,168.000001 136.827318,168.089844 136.142255,168.134766 L135.654769,168.161386 C135.136504,168.184679 134.525903,168.197989 133.822957,168.201317 L133.463789,168.202148 C132.363197,168.202148 131.464769,168.174073 130.768476,168.11792 C130.072184,168.061767 129.527511,167.966309 129.134443,167.831543 C128.741375,167.696777 128.455001,167.511476 128.275312,167.275635 C128.131561,167.086962 128.016562,166.858761 127.930312,166.591026 L122.817304,148.12207 L122.749922,147.818848 L122.682539,148.12207 L118.033125,166.382812 C117.94328,166.76465 117.814131,167.073485 117.645673,167.309326 C117.477216,167.545167 117.190841,167.730468 116.786543,167.865234 C116.382244,168.000001 115.831956,168.089844 115.135664,168.134766 L114.641522,168.161386 C114.117434,168.184679 113.503505,168.197989 112.799728,168.201317 L112.440351,168.202148 C111.317299,168.202148 110.413255,168.174073 109.728193,168.11792 C109.043131,168.061767 108.504074,167.966309 108.111005,167.831543 C107.717937,167.696777 107.431563,167.511476 107.251875,167.275635 C107.072186,167.039794 106.937422,166.742189 106.847578,166.382812 L98.8964059,139.193848 L98.7584813,138.731643 C98.6342442,138.29576 98.5510692,137.938844 98.5089547,137.660889 C98.4528021,137.290281 98.4247262,136.981447 98.4247262,136.734375 C98.4247262,136.509765 98.4864932,136.313233 98.6100289,136.144775 C98.7335647,135.976318 98.9581718,135.841553 99.2838571,135.740479 C99.6095423,135.639404 100.047526,135.566406 100.597822,135.521484 C101.069504,135.48298 101.644316,135.460977 102.322271,135.455477 L102.669843,135.454102 C103.568285,135.454102 104.298259,135.476562 104.859785,135.521484 C105.421311,135.566406 105.859295,135.645019 106.17375,135.757324 C106.488204,135.869629 106.707196,136.021239 106.830732,136.212158 C106.954268,136.403077 107.049726,136.633299 107.117109,136.902832 L113.080488,158.970703 L113.147871,159.375 L113.215254,158.970703 L118.808027,136.902832 C118.87541,136.633299 118.982099,136.403077 119.128095,136.212158 C119.274092,136.021239 119.493084,135.869629 119.785078,135.757324 C120.077071,135.645019 120.486979,135.566406 121.014814,135.521484 C121.542649,135.476562 122.222085,135.454102 123.053144,135.454102 C123.884203,135.454102 124.558024,135.482177 125.074629,135.53833 C125.591233,135.594483 126.001141,135.673095 126.304365,135.77417 C126.607589,135.875245 126.820966,136.010009 126.944502,136.178467 C127.068037,136.346925 127.163495,136.543456 127.230879,136.768066 L133.227949,159.004395 L133.329023,159.375 L133.396406,158.970703 L139.123945,136.902832 C139.168867,136.633299 139.25871,136.403077 139.393476,136.212158 C139.528242,136.021239 139.75285,135.869629 140.067304,135.757324 C140.381759,135.645019 140.808513,135.566406 141.347578,135.521484 C141.809634,135.48298 142.378945,135.460977 143.055525,135.455477 L143.402754,135.454102 C144.233812,135.454102 144.913249,135.476562 145.441084,135.521484 C145.968918,135.566406 146.384441,135.639404 146.687666,135.740479 C146.99089,135.841553 147.198651,135.976318 147.310957,136.144775 C147.423262,136.313233 147.479414,136.509765 147.479414,136.734375 Z M182.529931,151.524902 C182.529931,154.085462 182.19302,156.421376 181.519189,158.532715 C180.845357,160.644054 179.823395,162.463371 178.453271,163.990723 C177.083147,165.518074 175.364902,166.697261 173.298486,167.52832 C171.232069,168.359379 168.817543,168.774902 166.054834,168.774902 C163.381969,168.774902 161.057285,168.404301 159.080712,167.663086 C157.10414,166.921871 155.464508,165.843757 154.161767,164.428711 C152.859026,163.013665 151.893216,161.27296 151.264306,159.206543 C150.635397,157.140126 150.320947,154.781752 150.320947,152.131348 C150.320947,149.570788 150.663473,147.229259 151.348535,145.106689 C152.033597,142.98412 153.061174,141.164803 154.431298,139.648682 C155.801422,138.132561 157.514052,136.958989 159.569238,136.12793 C161.624424,135.296871 164.033335,134.881348 166.796044,134.881348 C169.49137,134.881348 171.827285,135.246334 173.803857,135.976318 C175.780429,136.706302 177.414446,137.778802 178.705957,139.193848 C179.997467,140.608894 180.957662,142.349599 181.586572,144.416016 C182.215481,146.482432 182.529931,148.852037 182.529931,151.524902 Z M173.803857,151.861816 C173.803857,150.379387 173.685938,149.014899 173.450097,147.768311 C173.214256,146.521722 172.815579,145.437993 172.254052,144.51709 C171.692526,143.596187 170.945707,142.877444 170.013574,142.36084 C169.08144,141.844236 167.907868,141.585938 166.492822,141.585938 C165.235003,141.585938 164.134428,141.81616 163.191064,142.276611 C162.2477,142.737063 161.472805,143.410884 160.866357,144.298096 C160.259909,145.185307 159.805079,146.252191 159.501855,147.498779 C159.198631,148.745368 159.047021,150.166008 159.047021,151.760742 C159.047021,153.243171 159.170555,154.60766 159.417626,155.854248 C159.664698,157.100836 160.063376,158.184566 160.613671,159.105469 C161.163967,160.026372 161.910786,160.739499 162.85415,161.244873 C163.797514,161.750247 164.965471,162.00293 166.358056,162.00293 C167.638336,162.00293 168.750141,161.772707 169.693505,161.312256 C170.636869,160.851804 171.411764,160.183598 172.018212,159.307617 C172.624661,158.431636 173.073875,157.370368 173.365869,156.123779 C173.657862,154.877191 173.803857,153.456551 173.803857,151.861816 Z M236.851933,166.854492 C236.851933,167.079103 236.784551,167.275634 236.649785,167.444092 C236.515018,167.61255 236.290411,167.752929 235.975956,167.865234 C235.661502,167.97754 235.234748,168.061767 234.695683,168.11792 C234.156618,168.174073 233.471566,168.202148 232.640507,168.202148 L232.029849,168.196884 C231.448672,168.186356 230.955939,168.160034 230.55164,168.11792 C230.012575,168.061767 229.580206,167.97754 229.254521,167.865234 C228.928836,167.752929 228.704229,167.61255 228.580693,167.444092 C228.457157,167.275634 228.39539,167.079103 228.39539,166.854492 L228.39539,149.031738 C228.39539,148.020991 228.299932,147.100102 228.109013,146.269043 C227.918094,145.437984 227.626105,144.724856 227.233037,144.129639 C226.839968,143.534421 226.345832,143.073976 225.750615,142.748291 C225.155397,142.422606 224.442269,142.259766 223.61121,142.259766 C222.600463,142.259766 221.578501,142.652828 220.545292,143.438965 C219.512084,144.225102 218.389048,145.370598 217.176152,146.875488 L217.176152,166.854492 C217.176152,167.079103 217.10877,167.275634 216.974003,167.444092 C216.839237,167.61255 216.609015,167.752929 216.28333,167.865234 C215.957644,167.97754 215.525276,168.061767 214.98621,168.11792 C214.447145,168.174073 213.773324,168.202148 212.964726,168.202148 C212.133667,168.202148 211.448615,168.174073 210.90955,168.11792 C210.370485,168.061767 209.938116,167.97754 209.612431,167.865234 C209.286746,167.752929 209.056524,167.61255 208.921757,167.444092 C208.786991,167.275634 208.719609,167.079103 208.719609,166.854492 L208.719609,149.031738 C208.719609,148.020991 208.624151,147.100102 208.433232,146.269043 C208.242313,145.437984 207.955939,144.724856 207.574101,144.129639 C207.192263,143.534421 206.698127,143.073976 206.091679,142.748291 C205.485231,142.422606 204.777718,142.259766 203.969121,142.259766 C202.935912,142.259766 201.902719,142.652828 200.869511,143.438965 C199.836303,144.225102 198.724498,145.370598 197.534062,146.875488 L197.534062,166.854492 C197.534062,167.079103 197.46668,167.275634 197.331914,167.444092 C197.197147,167.61255 196.966925,167.752929 196.64124,167.865234 C196.315554,167.97754 195.883186,168.061767 195.344121,168.11792 C194.805055,168.174073 194.120004,168.202148 193.288945,168.202148 C192.457886,168.202148 191.772834,168.174073 191.233769,168.11792 C190.694704,168.061767 190.262335,167.97754 189.93665,167.865234 C189.610965,167.752929 189.380742,167.61255 189.245976,167.444092 C189.11121,167.275634 189.043828,167.079103 189.043828,166.854492 L189.043828,136.801758 C189.043828,136.577147 189.099979,136.380616 189.212285,136.212158 C189.32459,136.0437 189.526736,135.903321 189.81873,135.791016 C190.110724,135.67871 190.486941,135.594483 190.947392,135.53833 C191.342065,135.490199 191.823367,135.462696 192.391308,135.45582 L192.682499,135.454102 C193.401253,135.454102 193.996462,135.482177 194.468144,135.53833 C194.939826,135.594483 195.304813,135.67871 195.563115,135.791016 C195.821417,135.903321 196.006718,136.0437 196.119023,136.212158 C196.231328,136.380616 196.28748,136.577147 196.28748,136.801758 L196.28748,140.271973 C197.949598,138.475089 199.606075,137.127446 201.256962,136.229004 C202.907849,135.330562 204.631709,134.881348 206.428593,134.881348 C207.663951,134.881348 208.775756,135.010497 209.764042,135.268799 C210.752329,135.527101 211.633912,135.897703 212.408818,136.380615 C213.183724,136.863528 213.85193,137.441891 214.413456,138.115723 C214.974983,138.789554 215.446658,139.541988 215.828496,140.373047 C216.726938,139.407222 217.608521,138.576175 218.473271,137.879883 C219.338021,137.18359 220.191528,136.616457 221.033818,136.178467 C221.876107,135.740476 222.718384,135.414796 223.560673,135.201416 C224.402963,134.988036 225.262085,134.881348 226.138066,134.881348 C228.137099,134.881348 229.821653,135.218258 231.191777,135.89209 C232.561901,136.565921 233.668091,137.481195 234.51038,138.637939 C235.35267,139.794684 235.953494,141.147941 236.312871,142.697754 C236.672247,144.247566 236.851933,145.887198 236.851933,147.616699 L236.851933,166.854492 Z M272.744736,150.952148 C272.744736,151.985357 272.514513,152.749021 272.054062,153.243164 C271.59361,153.737307 270.959095,153.984375 270.150497,153.984375 L251.856064,153.984375 C251.856064,155.264655 252.007674,156.426997 252.310898,157.471436 C252.614122,158.515874 253.097027,159.403073 253.759628,160.133057 C254.422229,160.863041 255.275736,161.418943 256.320175,161.800781 C257.364614,162.182619 258.616799,162.373535 260.076767,162.373535 C261.559196,162.373535 262.861918,162.266847 263.98497,162.053467 C265.108023,161.840087 266.079448,161.604249 266.899277,161.345947 L267.567606,161.130047 C267.990238,160.989781 268.367029,160.856849 268.697985,160.731251 L268.937607,160.638428 C269.476672,160.425048 269.914656,160.318359 270.251572,160.318359 C270.453721,160.318359 270.622176,160.357666 270.756943,160.436279 C270.891709,160.514893 271.004013,160.655272 271.093857,160.857422 C271.183701,161.059571 271.245468,161.345945 271.27916,161.716553 C271.307236,162.025392 271.323613,162.400518 271.328293,162.841938 L271.329697,163.114746 C271.329697,163.608889 271.318466,164.030028 271.296005,164.378174 C271.273544,164.72632 271.239853,165.023925 271.194931,165.270996 C271.150009,165.518068 271.082627,165.725829 270.992783,165.894287 C270.902938,166.062745 270.78502,166.225585 270.639023,166.382812 C270.493026,166.54004 270.094348,166.753417 269.442978,167.022949 C268.791607,167.292482 267.960561,167.556395 266.949814,167.814697 C265.939067,168.072999 264.78234,168.297606 263.479599,168.488525 C262.176858,168.679444 260.784294,168.774902 259.301865,168.774902 C256.629,168.774902 254.28747,168.437992 252.277206,167.76416 C250.266942,167.090329 248.588004,166.068366 247.240341,164.698242 C245.892678,163.328118 244.887561,161.598643 244.22496,159.509766 C243.562359,157.420888 243.231064,154.97267 243.231064,152.165039 C243.231064,149.492174 243.579205,147.083263 244.275497,144.938232 C244.97179,142.793202 245.982522,140.973884 247.307724,139.480225 C248.632926,137.986565 250.244482,136.846684 252.142441,136.060547 C254.040399,135.27441 256.179782,134.881348 258.560654,134.881348 C261.076291,134.881348 263.226904,135.251949 265.012558,135.993164 C266.798211,136.734379 268.263773,137.761956 269.409286,139.075928 C270.5548,140.389899 271.397077,141.945304 271.936142,143.742188 C272.475207,145.539071 272.744736,147.493154 272.744736,149.604492 L272.744736,150.952148 Z M264.524033,148.526367 C264.591416,146.145496 264.114126,144.275642 263.092148,142.916748 C262.07017,141.557855 260.492305,140.878418 258.358505,140.878418 C257.280375,140.878418 256.34264,141.080564 255.545273,141.484863 C254.747906,141.889162 254.085314,142.433834 253.55748,143.118896 C253.029645,143.803959 252.625352,144.612544 252.344589,145.544678 C252.063826,146.476811 251.900986,147.470698 251.856064,148.526367 L264.524033,148.526367 Z M308.233241,166.854492 C308.233241,167.079103 308.165859,167.275634 308.031093,167.444092 C307.896327,167.61255 307.67172,167.752929 307.357265,167.865234 C307.04281,167.97754 306.610441,168.061767 306.060146,168.11792 C305.50985,168.174073 304.830413,168.202148 304.021816,168.202148 C303.190757,168.202148 302.50009,168.174073 301.949794,168.11792 C301.399498,168.061767 300.96713,167.97754 300.652675,167.865234 C300.33822,167.752929 300.113613,167.61255 299.978847,167.444092 C299.844081,167.275634 299.776698,167.079103 299.776698,166.854492 L299.776698,149.705566 C299.776698,148.245598 299.67001,147.100102 299.45663,146.269043 C299.24325,145.437984 298.934415,144.724856 298.530116,144.129639 C298.125818,143.534421 297.603606,143.073976 296.963466,142.748291 C296.323326,142.422606 295.576507,142.259766 294.722988,142.259766 C293.644857,142.259766 292.555513,142.652828 291.454921,143.438965 C290.35433,144.225102 289.208833,145.370598 288.018398,146.875488 L288.018398,166.854492 C288.018398,167.079103 287.951016,167.275634 287.816249,167.444092 C287.681483,167.61255 287.451261,167.752929 287.125575,167.865234 C286.79989,167.97754 286.367521,168.061767 285.828456,168.11792 C285.289391,168.174073 284.604339,168.202148 283.773281,168.202148 C282.942222,168.202148 282.25717,168.174073 281.718105,168.11792 C281.17904,168.061767 280.746671,167.97754 280.420986,167.865234 C280.0953,167.752929 279.865078,167.61255 279.730312,167.444092 C279.595545,167.275634 279.528163,167.079103 279.528163,166.854492 L279.528163,136.801758 C279.528163,136.577147 279.584315,136.380616 279.69662,136.212158 C279.808926,136.0437 280.011072,135.903321 280.303066,135.791016 C280.595059,135.67871 280.971276,135.594483 281.431728,135.53833 C281.826401,135.490199 282.307702,135.462696 282.875644,135.45582 L283.166835,135.454102 C283.885589,135.454102 284.480798,135.482177 284.95248,135.53833 C285.424162,135.594483 285.789148,135.67871 286.04745,135.791016 C286.305753,135.903321 286.491053,136.0437 286.603359,136.212158 C286.715664,136.380616 286.771816,136.577147 286.771816,136.801758 L286.771816,140.271973 C288.433933,138.475089 290.124102,137.127446 291.842372,136.229004 C293.560643,135.330562 295.351884,134.881348 297.216152,134.881348 C299.260107,134.881348 300.983967,135.218258 302.387782,135.89209 C303.791598,136.565921 304.925864,137.481195 305.790614,138.637939 C306.655365,139.794684 307.27865,141.147941 307.660488,142.697754 C308.042325,144.247566 308.233241,146.111806 308.233241,148.290527 L308.233241,166.854492 Z" id="forwomen"></path>
                </g>
            </g>
        </g>
    </g>
</svg>